<svg xmlns="http://www.w3.org/2000/svg" xml:space="preserve" version="1.1" style="shape-rendering:geometricPrecision; text-rendering:geometricPrecision; image-rendering:optimizeQuality; fill-rule:evenodd; clip-rule:evenodd"
viewBox="0 0 100 100"
 xmlns:xlink="http://www.w3.org/1999/xlink"
 xmlns:xodm="http://www.corel.com/coreldraw/odm/2003">
 <defs>
  <style type="text/css">
   <![CDATA[
    .str0 {stroke:#2D2A2B;stroke-width:20;stroke-miterlimit:22.9256}
    .fil0 {fill:none}
   ]]>
  </style>
 </defs>
 <g id="Dente_x0020_1_6" visibility="hidden">
  <metadata id="CorelCorpID_1Corel-Layer"/>
  <path id="Dente_x0020_1_7" class="fil0 str0" d="M3.54 5.88c0,0 -0.34 0.93 0.08 0.9 0.42,-0.03 0.36,-0.1 0.64,0.01 0.28,0.11 0.47,-0.03 0.51,-0.16 0.04,-0.14 -0.13,-0.55 -0.13,-0.55 0,0 -0.06,-0.28 -0.05,-0.7 0.01,-0.42 -0.08,-0.42 -0.11,-0.07 -0.03,0.35 -0.12,0.65 -0.18,0.36 -0.05,-0.91 -0.05,-0.91 0,0 -0.02,-0.41 -0.15,-1.03 -0.14,-0.62 -0.21,-0.01 -0.3,0.1 -0.09,0.11 -0.12,0.26 -0.14,0.91 -0.02,0.65 -0.02,0.65 -0.02,0.65z"/>
  <path id="Dente_x0020_1_8" class="fil0 str0" d="M7.43 6.57c0,0 0.27,-1.12 0.32,0.05"/>
  <path id="Dente_x0020_1_9" class="fil0 str0" d="M3.86 7.66c0,0 0.1,0.05 0.39,0.02 0.29,-0.03 0.32,0.05 0.36,0.06"/>
  <path id="Dente_x0020_1_10" class="fil0 str0" d="M3.97 6.97c0,0 0.65,-0.19 0.84,0.05"/>
  <path id="Dente_x0020_1_11" class="fil0 str0" d="M5.1 7.47c0,0 0.06,0.12 -0.03,0.21"/>
 </g>
 <g id="Dente_x0020_2">
  <metadata id="CorelCorpID_2Corel-Layer"/>
  <path class="fil0 str0" d="M14.29 4.87c0,0 0.07,-0.3 -0.8,0.02 -0.87,0.32 -1,1.23 -0.94,1.27"/>
  <path class="fil0 str0" d="M10.94 8.03c0,0 1.06,-0.35 1.58,0.04"/>
  <path class="fil0 str0" d="M15.75 6.51c0,0 -0.19,-1.55 -0.52,-1.09"/>
  <path class="fil0 str0" d="M10.69 8.72c0,0 0.19,0.23 0.83,0.06"/>
  <path class="fil0 str0" d="M16.96 8.85c0,0 -0.42,-0.2 -0.64,-0.12"/>
  <path class="fil0 str0" d="M14.03 8.94c0,0 0.14,-0.21 0.1,-0.38"/>
  <path class="fil0 str0" d="M9.61 8.07c0,0 -1.06,2.61 1.08,2.03 0.39,-0.11 0.68,0.24 0.99,0.14 0.31,-0.1 0.81,-0.53 0.58,-1.1 -0.23,-0.57 -0.3,-0.98 -0.29,-1.02 0.01,-0.04 -0.03,-1.46 -0.24,-1.46 0,0 -0.23,-0.63 -0.65,-0.52 -0.42,0.11 -0.55,1.16 -0.6,1.31 -0.05,0.16 -0.55,0.75 -0.75,0.36 -0.2,-0.39 -0.4,-1.55 -0.21,-1.6"/>
 </g>
 <g id="Dente_x0020_3" visibility="hidden">
  <metadata id="CorelCorpID_3Corel-Layer"/>
  <path class="fil0 str0" d="M32.82 8.21c0,0 -2.12,4.98 1,4.77 3.12,-0.21 0.47,-0.72 3.33,0.05 2.85,0.76 2.14,-2.52 2.12,-2.87 -0.02,-0.35 -0.72,-2.68 -0.55,-3.23 0.17,-0.55 0.28,-6.57 -0.63,-5.24 -0.91,1.33 -1.26,4.67 -1.51,5.33 -0.24,0.66 -0.66,-6.02 -0.34,-6.6 0.32,-0.58 -1.09,-3.86 -0.43,-4.28 0.65

,-0.42 1.17,-0.79 1.17,-0.79"/>
  <path class="fil0 str0" d="M29.92 8.1c0,0 0.46,-0.35 -0.24,-0.43"/>
  <path class="fil0 str0" d="M32.27 7.82c0,0 -0.16,-0.6 -0.74,-0.49"/>
 </g>
 <g id="Dente_x0020_4" visibility="hidden">
  <metadata id="CorelCorpID_4Corel-Layer"/>
  <path class="fil0 str0" d="M51.27 10.1c0,0 -0.16,1.89 -1.31,1.36 -1.15,-0.52 -2.17,-0.3 -1.87,-0.91 0.3,-0.61 0.65,-1.76 0.65,-1.76"/>
  <path class="fil0 str0" d="M49.19 8.78c0,0 0.08,-1.52 -0.55,-1.42 -0.63,0.1 -0.36,0.79 -0.36,0.79"/>
 </g>
 <g id="Dente_x0020_5" visibility="hidden">
  <metadata id="CorelCorpID_5Corel-Layer"/>
  <path class="fil0 str0" d="M64.63 9.56c0,0 0.39,2.04 -0.52,2.56 -0.91,0.51 -0.41,-1.31 -1.05,-1.43 -0.64,-0.12 -0.97,1.31 -1.36,1.15 -0.39,-0.16 0.16,-1.47 0.16,-1.47"/>
 </g>
 <g id="Dente_x0020_6" visibility="hidden">
  <metadata id="CorelCorpID_6Corel-Layer"/>
  <path class="fil0 str0" d="M84.13 10.04c0,0 -0.24,1.24 -0.92,0.84 -0.68,-0.41 -0.24,-0.68 -0.36,-1.31 -0.12,-0.63 -0.2,-0.52 -0.2,-0.52"/>
  <path class="fil0 str0" d="M83.34 9.44c0,0 0.08,0.38 -0.4,0.3"/>
 </g>
 <g id="Dente_x0020_7" visibility="hidden">
  <metadata id="CorelCorpID_7Corel-Layer"/>
  <path class="fil0 str0" d="M94.11 12.32c0,0 -0.3,1.42 -1.05,1.57 -0.74,0.16 -0.62,-0.97 -1.42,-0.91 -0.8,0.06 -0.66,1.1 -0.74,1.1 -0.08,0 -0.72,-0.3 -0.96,-0.24 -0.24,0.06 -0.18,0.68 -0.66,0.42"/>
 </g>
 <g id="Dente_x0020_8" visibility="hidden">
  <metadata id="CorelCorpID_8Corel-Layer"/>
  <path class="fil0 str0" d="M99.17 14.53c0,0 -0.3,1.42 -1.05,1.57 -0.74,0.16 -0.62,-0.97 -1.42,-0.91 -0.8,0.06 -0.66,1.1 -0.74,1.1 -0.08,0 -0.72,-0.3 -0.96,-0.24 -0.24,0.06 -0.18,0.68 -0.66,0.42"/>
 </g>
</svg>