<?xml version="1.0" encoding="UTF-8"?>
<!DOCTYPE svg PUBLIC "-//W3C//DTD SVG 1.1//EN" "http://www.w3.org/Graphics/SVG/1.1/DTD/svg11.dtd">
<!-- Creator: CorelDRAW -->
<svg xmlns="http://www.w3.org/2000/svg" xml:space="preserve" width="246.243mm" height="82.589mm" version="1.1" style="shape-rendering:geometricPrecision; text-rendering:geometricPrecision; image-rendering:optimizeQuality; fill-rule:evenodd; clip-rule:evenodd"
viewBox="0 0 24624.3 8258.9"
 xmlns:xlink="http://www.w3.org/1999/xlink"
 xmlns:xodm="http://www.corel.com/coreldraw/odm/2003">
 <defs>
  <style type="text/css">
   <![CDATA[
    .str0 {stroke:#2D2A2B;stroke-width:20;stroke-miterlimit:22.9256}
    .fil0 {fill:none}
   ]]>
  </style>
 </defs>
 <g id="Odontograma_x0020_Geral" visibility="hidden">
  <metadata id="CorelCorpID_0Corel-Layer"/>
  <image id="Dente_x0020_1" x="2124.02" y="-6954.35" width="30056.97" height="12523.74" xlink:href="Odontograma_Images/Odontograma_ImgID1.png"/>
 </g>
 <g id="Dente_x0020_1_0">
  <metadata id="CorelCorpID_1Corel-Layer"/>
  <path id="Dente_x0020_1_1" class="fil0 str0" d="M195.1 2279.66c0,0 -342.13,928.66 81.46,896.07 423.59,-32.59 362.5,-101.83 643.54,4.07 281.04,105.9 476.54,-32.58 513.2,-191.43 36.66,-158.85 -118.11,-631.33 -118.11,-631.33 0,0 -58.51,-297.77 -49.27,-741.26 9.24,-443.49 -184.8,-446.57 -261.79,-73.91 -76.99,372.66 -252.55,692.97 -372.66,384.98 -120.11,-307.99 9.24,-705.29 -150.91,-652.93 -160.15,52.36 -207.3,127.64 -246.38,566.69 -39.08,439.05 -39.08,439.05 -39.08,439.05z"/>
  <path id="Dente_x0020_1_2" class="fil0 str0" d="M594.53 1795.38c0,0 276.88,-1114.88 332.25,16.45"/>
  <path id="Dente_x0020_1_3" class="fil0 str0" d="M306.18 2907.29c0,0 101.44,50.73 388.86,19.73 287.42,-31 315.59,50.72 352.23,61.99"/>
  <path id="Dente_x0020_1_4" class="fil0 str0" d="M359.05 2305.91c0,0 646.51,-193.62 835.24,46.87"/>
  <path id="Dente_x0020_1_5" class="fil0 str0" d="M731.92 2800.23c0,0 62.43,135.76 -34.09,234.38"/>
 </g>
 <g id="Dente_x0020_2">
  <metadata id="CorelCorpID_2Corel-Layer"/>
  <path class="fil0 str0" d="M2636.85 1198.8c0,0 6.08,-257.94 -217.38,12.02 -223.46,269.96 -257.07,1045.47 -242.57,1075.36"/>
  <path class="fil0 str0" d="M2364.53 2256.52c0,0 530.31,-176.78 791.94,4.71"/>
  <path class="fil0 str0" d="M2890.12 1736c0,0 -94.78,-768.76 -257.25,-539.21"/>
  <path class="fil0 str0" d="M2309.03 2888.29c0,0 94.9,115.09 407.85,28.27"/>
  <path class="fil0 str0" d="M3076.27 2981.16c0,0 -236.22,-109.01 -359.39,-64.6"/>
  <path class="fil0 str0" d="M2698.7 3023.56c0,0 76.73,-113.06 54.52,-203.92"/>
  <path class="fil0 str0" d="M2173.81 2284.65c0,0 -457.3,1127.94 466.09,876.5l156.06 -43.35c0,0 268.79,112.7 390.17,65.02 121.38,-47.68 312.13,-255.77 221.09,-533.22 -91.04,-277.45 -117.04,-476.86 -112.71,-498.54 4.33,-21.68 -8.49,-799.03 -64.67,-799.03 0,0 -64.16,-274.77 -178.97,-225.2 -114.81,49.57 -151.1,525.99 -165.57,594.37 -14.47,68.38 -147.55,313.65 -199.73,149.27 -52.18,-164.38 -103.75,-656.35 -55.79,-675.21"/>
 </g>
 <g id="Dente_x0020_3">
  <metadata id="CorelCorpID_3Corel-Layer"/>
  <path class="fil0 str0" d="M4206.92 2269.26c0,0 -405.28,953.08 191.5,912.99 596.78,-40.09 89.08,-138.07 636.87,8.9 547.79,146.97 409.72,-485.44 405.27,-552.24 -4.45,-66.8 -146.97,-507.71 -111.34,-610.14 35.63,-102.43 59.91,-1221.78 -133.61,-977.33 -193.52,244.45 -268.21,858.98 -421,774.1 -152.79,-84.88 -264.83,-651.87 -291.99,-719.78 -27.16,-67.91 -108.64,-224.08 -203.71,78.09 -95.07,302.17 -83.11,1112.99 -71.99,1085.41z"/>
  <path class="fil0 str0" d="M4516.38 1227.89c0,0 91.87,-291.88 166.56,-169.66 74.69,122.22 201.46,705.46 201.46,705.46"/>
  <path class="fil0 str0" d="M4383.79 2269.17c0,0 506.62,-219.09 812.42,-4.57"/>
  <path class="fil0 str0" d="M4368.35 2932.53c0,0 173.91,145.59 380.17,-4.05 0,0 214.36,-38.42 333.66,101.11"/>
  <path class="fil0 str0" d="M4750.54 2835.46c0,0 38.42,179.98 -10.11,192.11"/>
 </g>
 <g id="Dente_x0020_4">
  <metadata id="CorelCorpID_4Corel-Layer"/>
  <path class="fil0 str0" d="M6151.47 2324.44c0,0 -147,594.42 -57.52,683.9 89.48,89.48 345.14,313.18 639.15,178.96 294.01,-134.22 223.7,-472.98 204.53,-530.5 -19.17,-57.52 -172.57,-485.75 -166.18,-530.49 6.39,-44.74 -134.23,-613.6 -121.44,-722.25 12.79,-108.65 19.17,-658.32 -76.7,-690.28 0,0 -115.04,-236.48 -147,108.66 -31.96,345.14 -321.44,1720.1 -274.84,1502z"/>
  <path class="fil0 str0" d="M6292.09 2362.79c0,0 265.02,-177.8 415.45,-57.52"/>
  <path class="fil0 str0" d="M6286.88 3063.76c0,0 387.38,-67.91 472.51,0"/>
  <path class="fil0 str0" d="M6541.31 3125.93c0,0 51.66,-215.21 -39.21,-195.12"/>
 </g>
 <g id="Dente_x0020_5">
  <metadata id="CorelCorpID_5Corel-Layer"/>
  <path class="fil0 str0" d="M7556.02 2287.06c0,0 -254.26,423.76 -93.23,767 0,0 216.11,211.88 432.23,173.74 0,0 457.65,-97.47 427.99,-457.66 0,0 -161.03,-745.8 -169.5,-805.13 -8.47,-59.33 -230.56,-1528.27 -320.73,-1514.4 -90.17,13.87 -110.97,110.99 -173.4,575.72 -62.43,464.73 6.93,1255.48 -103.36,1260.73z"/>
  <path class="fil0 str0" d="M7651.54 2315.04c0,0 294.27,-129 471.65,36.28"/>
  <path class="fil0 str0" d="M7627.35 3016.47c0,0 229.77,-32.26 431.34,20.15"/>
  <path class="fil0 str0" d="M7834.94 2911.67c0,0 -40.81,93.95 24.92,184.33"/>
 </g>
 <g id="Dente_x0020_6">
  <metadata id="CorelCorpID_6Corel-Layer"/>
  <path class="fil0 str0" d="M8849.38 2311.18c0,0 -392.48,836.8 348.05,888.64"/>
  <path class="fil0 str0" d="M9545.48 2918.42c0,0 -88.86,303.61 -348.05,281.4"/>
  <path class="fil0 str0" d="M9434.4 1874.27c0,0 162.92,755.34 111.08,1044.15"/>
  <path class="fil0 str0" d="M9434.4 1874.27c0,0 -143.56,-1750.82 -252.48,-1734.06 -108.92,16.76 -92.16,259.73 -134.05,335.14 -41.89,75.41 -198.49,1835.83 -198.49,1835.83"/>
  <path class="fil0 str0" d="M8955.7 2293.48c0,0 75.41,-92.16 402.17,0"/>
 </g>
 <g id="Dente_x0020_7">
  <metadata id="CorelCorpID_7Corel-Layer"/>
  <path class="fil0 str0" d="M10054.87 2315.68l-31.68 766.59c0,0 215.41,171.07 728.58,38.02l6.33 -760.26c0,0 -164.71,-367.46 -171.05,-823.61 -6.34,-456.15 -196.41,-1368.47 -247.09,-1140.39 -50.68,228.08 -171.04,1121.39 -183.72,1381.14 -12.68,259.75 -105.05,627.33 -101.37,538.51z"/>
  <path class="fil0 str0" d="M10187.91 2252.33c0,0 69.69,-171.06 367.46,-57.02"/>
 </g>
 <g id="Dente_x0020_8">
  <metadata id="CorelCorpID_8Corel-Layer"/>
  <path class="fil0 str0" d="M11208.92 2296.74l0 756.26c0,0 232.7,274.24 839.37,33.24 0,0 8.3,-831.06 -49.87,-831.06 -58.17,0 -315.8,-1844.94 -315.8,-1844.94 0,0 -124.65,-540.18 -224.38,-8.31 -99.73,531.87 -157.91,2019.47 -249.32,1894.81z"/>
  <path class="fil0 str0" d="M11366.01 2136.07c0,0 344.64,-225.36 502.32,-9.66"/>
 </g>
 <g id="Dente_x0020_9">
  <metadata id="CorelCorpID_9Corel-Layer"/>
  <path class="fil0 str0" d="M13387.47 2303.31l0 756.26c0,0 -232.7,274.24 -839.37,33.24 0,0 -8.3,-831.06 49.87,-831.06 58.17,0 315.8,-1844.94 315.8,-1844.94 0,0 124.65,-540.18 224.38,-8.31 99.73,531.87 157.91,2019.47 249.32,1894.81z"/>
  <path class="fil0 str0" d="M13230.38 2142.64c0,0 -344.64,-225.36 -502.32,-9.66"/>
 </g>
 <g id="Dente_x0020_10">
  <metadata id="CorelCorpID_10Corel-Layer"/>
  <path class="fil0 str0" d="M14513.63 2352.88l31.68 766.59c0,0 -215.41,171.07 -728.58,38.02l-6.33 -760.26c0,0 164.71,-367.46 171.05,-823.61 6.34,-456.15 196.41,-1368.47 247.09,-1140.39 50.68,228.08 171.04,1121.39 183.72,1381.14 12.68,259.75 105.05,627.33 101.37,538.51z"/>
  <path class="fil0 str0" d="M14380.59 2289.53c0,0 -69.69,-171.06 -367.46,-57.02"/>
 </g>
 <g id="Dente_x0020_11">
  <metadata id="CorelCorpID_11Corel-Layer"/>
  <path class="fil0 str0" d="M15679.03 2265.29c0,0 392.48,836.8 -348.05,888.64"/>
  <path class="fil0 str0" d="M14982.93 2872.53c0,0 88.86,303.61 348.05,281.4"/>
  <path class="fil0 str0" d="M15094.01 1828.38c0,0 -162.92,755.34 -111.08,1044.15"/>
  <path class="fil0 str0" d="M15094.01 1828.38c0,0 143.56,-1750.82 252.48,-1734.06 108.92,16.76 92.16,259.73 134.05,335.14 41.89,75.41 198.49,1835.83 198.49,1835.83"/>
  <path class="fil0 str0" d="M15572.71 2247.59c0,0 -75.41,-92.16 -402.17,0"/>
 </g>
 <g id="Dente_x0020_12">
  <metadata id="CorelCorpID_12Corel-Layer"/>
  <path class="fil0 str0" d="M17031.95 2259.06c0,0 254.26,423.76 93.23,767 0,0 -216.11,211.88 -432.23,173.74 0,0 -457.65,-97.47 -427.99,-457.66 0,0 161.03,-745.8 169.5,-805.13 8.47,-59.33 230.56,-1528.27 320.73,-1514.4 90.17,13.87 110.97,110.99 173.4,575.72 62.43,464.73 -6.93,1255.48 103.36,1260.73z"/>
  <path class="fil0 str0" d="M16936.43 2287.04c0,0 -294.27,-129 -471.65,36.28"/>
  <path class="fil0 str0" d="M16960.62 2988.47c0,0 -229.77,-32.26 -431.34,20.15"/>
  <path class="fil0 str0" d="M16753.03 2883.67c0,0 40.81,93.95 -24.92,184.33"/>
 </g>
 <g id="Dente_x0020_13">
  <metadata id="CorelCorpID_13Corel-Layer"/>
  <path class="fil0 str0" d="M18306.75 2332.69c0,0 147,594.42 57.52,683.9 -89.48,89.48 -345.14,313.18 -639.15,178.96 -294.01,-134.22 -223.7,-472.98 -204.53,-530.5 19.17,-57.52 172.57,-485.75 166.18,-530.49 -6.39,-44.74 134.23,-613.6 121.44,-722.25 -12.79,-108.65 -19.17,-658.32 76.7,-690.28 0,0 115.04,-236.48 147,108.66 31.96,345.14 321.44,1720.1 274.84,1502z"/>
  <path class="fil0 str0" d="M18166.13 2371.04c0,0 -265.02,-177.8 -415.45,-57.52"/>
  <path class="fil0 str0" d="M18171.34 3072.01c0,0 -387.38,-67.91 -472.51,0"/>
  <path class="fil0 str0" d="M17916.91 3134.18c0,0 -51.66,-215.21 39.21,-195.12"/>
 </g>
 <g id="Dente_x0020_14">
  <metadata id="CorelCorpID_14Corel-Layer"/>
  <path class="fil0 str0" d="M19151.17 2303.35c0,0 -405.28,953.08 191.5,912.99 596.78,-40.09 89.08,-138.07 636.87,8.9 547.79,146.97 409.72,-485.44 405.27,-552.24 -4.45,-66.8 -146.97,-507.71 -111.34,-610.14 35.63,-102.43 59.91,-1221.78 -133.61,-977.33 -193.52,244.45 -268.21,858.98 -421,774.1 -152.79,-84.88 -264.83,-651.87 -291.99,-719.78 -27.16,-67.91 -108.64,-224.08 -203.71,78.09 -95.07,302.17 -83.11,1112.99 -71.99,1085.41z"/>
  <path class="fil0 str0" d="M19992.43 1261.98c0,0 -91.87,-291.88 -166.56,-169.66 -74.69,122.22 -201.46,705.46 -201.46,705.46"/>
  <path class="fil0 str0" d="M20125.02 2303.26c0,0 -506.62,-219.09 -812.42,-4.57"/>
  <path class="fil0 str0" d="M20140.46 2966.62c0,0 -173.91,145.59 -380.17,-4.05 0,0 -214.36,-38.42 -333.66,101.11"/>
  <path class="fil0 str0" d="M19758.27 2869.55c0,0 -38.42,179.98 10.11,192.11"/>
 </g>
 <g id="Dente_x0020_15">
  <metadata id="CorelCorpID_15Corel-Layer"/>
  <path class="fil0 str0" d="M21677.24 1176.88c0,0 6.08,-257.94 -217.38,12.02 -223.46,269.96 -257.07,1045.47 -242.57,1075.36"/>
  <path class="fil0 str0" d="M21404.92 2234.6c0,0 530.31,-176.78 791.94,4.71"/>
  <path class="fil0 str0" d="M21930.51 1714.08c0,0 -94.78,-768.76 -257.25,-539.21"/>
  <path class="fil0 str0" d="M21349.42 2866.37c0,0 94.9,115.09 407.85,28.27"/>
  <path class="fil0 str0" d="M22116.66 2959.24c0,0 -236.22,-109.01 -359.39,-64.6"/>
  <path class="fil0 str0" d="M21739.09 3001.64c0,0 76.73,-113.06 54.52,-203.92"/>
  <path class="fil0 str0" d="M21214.2 2262.73c0,0 -457.3,1127.94 466.09,876.5l156.06 -43.35c0,0 268.79,112.7 390.17,65.02 121.38,-47.68 312.13,-255.77 221.09,-533.22 -91.04,-277.45 -117.04,-476.86 -112.71,-498.54 4.33,-21.68 -8.49,-799.03 -64.67,-799.03 0,0 -64.16,-274.77 -178.97,-225.2 -114.81,49.57 -151.1,525.99 -165.57,594.37 -14.47,68.38 -147.55,313.65 -199.73,149.27 -52.18,-164.38 -103.75,-656.35 -55.79,-675.21"/>
 </g>
 <g id="Dente_x0020_16">
  <metadata id="CorelCorpID_16Corel-Layer"/>
  <path id="Dente_x0020_1_6" class="fil0 str0" d="M24312.11 2175.08c0,0 342.13,928.66 -81.46,896.07 -423.59,-32.59 -362.5,-101.83 -643.54,4.07 -281.04,105.9 -476.54,-32.58 -513.2,-191.43 -36.66,-158.85 118.11,-631.33 118.11,-631.33 0,0 58.51,-297.77 49.27,-741.26 -9.24,-443.49 184.8,-446.57 261.79,-73.91 76.99,372.66 252.55,692.97 372.66,384.98 120.11,-307.99 -9.24,-705.29 150.91,-652.93 160.15,52.36 207.3,127.64 246.38,566.69 39.08,439.05 39.08,439.05 39.08,439.05z"/>
  <path id="Dente_x0020_1_7" class="fil0 str0" d="M23912.68 1690.8c0,0 -276.88,-1114.88 -332.25,16.45"/>
  <path id="Dente_x0020_1_8" class="fil0 str0" d="M24201.03 2802.71c0,0 -101.44,50.73 -388.86,19.73 -287.42,-31 -315.59,50.72 -352.23,61.99"/>
  <path id="Dente_x0020_1_9" class="fil0 str0" d="M24148.16 2201.33c0,0 -646.51,-193.62 -835.24,46.87"/>
  <path id="Dente_x0020_1_10" class="fil0 str0" d="M23775.29 2695.65c0,0 -62.43,135.76 34.09,234.38"/>
 </g>
 <g id="Dente_x0020_17">
  <metadata id="CorelCorpID_17Corel-Layer"/>
  <path class="fil0 str0" d="M24307.5 5428.8c0,0 436.96,64.47 157.59,909.73 0,0 0,630.36 -64.47,866.75 -64.47,236.39 -222.06,1131.8 -379.65,-78.79 0,0 -186.24,-680.51 -336.67,14.32 0,0 -14.33,494.26 -57.31,558.73 -42.98,64.47 -200.57,-193.41 -286.53,-444.12 -85.96,-250.71 -42.98,-386.8 -64.47,-487.09 -21.49,-100.29 42.98,-479.94 -100.28,-594.55 -143.26,-114.61 -186.25,-852.43 293.69,-702 479.94,150.43 873.8,-32.55 873.8,-32.55"/>
  <path class="fil0 str0" d="M24264.52 6367.19c0,0 -635.64,70.34 -845.26,-42.98"/>
  <path class="fil0 str0" d="M24164.23 5643.7c0,0 -415.46,114.62 -673.34,78.8"/>
  <path class="fil0 str0" d="M23913.52 5808.46c0,0 -19.35,-115.81 -157.59,-207.74"/>
 </g>
 <g id="Dente_x0020_18">
  <metadata id="CorelCorpID_18Corel-Layer"/>
  <path class="fil0 str0" d="M22154.37 5463.06c0,0 436.93,-50.14 136.09,866.73 0,0 7.16,967.01 -50.14,1060.13 -57.3,93.12 -222.05,623.18 -336.66,386.8 0,0 21.49,-988.49 -186.24,-881.05 -207.73,107.44 -179.07,916.87 -193.4,916.87 -14.33,0 -136.09,444.11 -358.15,-823.75 0,0 28.64,-408.29 -7.17,-558.72 -35.81,-150.43 -372.48,-852.41 136.1,-974.18 0,0 343.82,71.64 479.92,78.8 136.1,7.16 379.65,-71.63 379.65,-71.63z"/>
  <path class="fil0 str0" d="M22140.04 6422.9c0,0 -737.79,57.31 -845.24,-35.81"/>
  <path class="fil0 str0" d="M22054.08 5692.27c0,0 -357.53,93.31 -687.65,42.98"/>
  <path class="fil0 str0" d="M21781.89 5892.84c0,0 -50.13,-222.06 -193.4,-293.69"/>
 </g>
 <g id="Dente_x0020_19">
  <metadata id="CorelCorpID_19Corel-Layer"/>
  <path class="fil0 str0" d="M20213.1 5544.84c0,0 286.52,21.5 257.87,594.54 0,0 -121.78,186.23 -157.59,551.55 -35.81,365.32 164.76,601.7 7.17,1189.07 -157.59,587.37 -300.85,-386.81 -300.85,-386.81 0,0 -150.43,-544.38 -272.2,-458.43 -121.77,85.95 -222.05,981.33 -222.05,981.33 0,0 -71.63,472.77 -279.36,-372.47 0,0 -143.27,-659 -85.96,-1095.95 0,0 -164.74,-451.27 -85.95,-730.63 78.79,-279.36 343.82,-372.48 673.32,-186.24l350.99 -93.12 114.61 7.16z"/>
  <path class="fil0 str0" d="M20191.61 6533.34c0,0 -479.91,143.26 -909.7,-28.65"/>
  <path class="fil0 str0" d="M20084.17 5759.74c0,0 -128.94,78.78 -766.45,64.46"/>
  <path class="fil0 str0" d="M19797.65 5953.14c0,0 15.96,-146.38 -214.9,-279.36"/>
 </g>
 <g id="Dente_x0020_20">
  <metadata id="CorelCorpID_20Corel-Layer"/>
  <path class="fil0 str0" d="M18478.75 5603.39l-30.89 623.97c0,0 -253.3,691.92 -185.34,766.06 0,0 55.61,1031.71 -12.35,1124.38 -67.96,92.67 -43.24,383.03 -376.85,-710.46l-111.21 -871.08c0,0 -160.62,-420.1 -160.62,-481.88 0,-61.78 -49.43,-438.62 12.35,-488.05 61.78,-49.43 228.58,-197.7 327.43,-191.52 98.85,6.18 463.35,55.6 537.48,228.58z"/>
  <path class="fil0 str0" d="M18268.7 5609.57c0,0 -302.71,-98.85 -426.27,-37.07"/>
  <path class="fil0 str0" d="M18072.78 5705.8c0,0 -115.23,-189.7 -105.03,-278"/>
  <path class="fil0 str0" d="M18225.46 6375.63c0,0 -86.49,154.45 -383.03,61.78"/>
 </g>
 <g id="Dente_x0020_21">
  <metadata id="CorelCorpID_21Corel-Layer"/>
  <path class="fil0 str0" d="M16966.68 5964.14l-11.95 -388.63c0,0 -137.52,-245.14 -466.36,-221.22 -328.84,23.92 -352.75,370.69 -322.86,209.26 29.89,-161.43 -131.54,484.3 95.66,771.29 0,0 113.38,762.57 163.52,1008.7 50.14,246.13 91.17,656.37 232.47,729.29 141.3,72.92 41.02,-1285.38 136.74,-1490.49 95.72,-205.11 172.78,-618.2 172.78,-618.2z"/>
  <path class="fil0 str0" d="M16760.71 6359.19c0,0 -148.35,82.11 -434.44,-39.74"/>
  <path class="fil0 str0" d="M16762.87 5557.88c0,0 -118.52,31.9 -405.68,-9.12"/>
  <path class="fil0 str0" d="M16622.53 5669.52c0,0 -85.59,-92.7 -91.16,-214.24"/>
 </g>
 <g id="Dente_x0020_22">
  <metadata id="CorelCorpID_22Corel-Layer"/>
  <path class="fil0 str0" d="M15138.98 5379.12c0,0 300.68,97.4 389.61,334.55 88.93,237.15 -203.28,918.95 -152.46,974.01 0,0 20.98,1195.52 64.94,1219.49 43.96,23.97 -31.95,519.47 -147.84,243.75 -115.89,-275.72 -411.59,-1710.25 -387.61,-1710.25 23.98,0 -197.08,-490.34 -128.93,-783.87 68.15,-293.53 428.95,-250.56 362.29,-277.68z"/>
  <path class="fil0 str0" d="M15332.31 6317.24c0,0 -188.7,104.84 -387.88,-15.72"/>
 </g>
 <g id="Dente_x0020_23">
  <metadata id="CorelCorpID_23Corel-Layer"/>
  <path class="fil0 str0" d="M14286.97 5508.71l14.22 689.7c0,0 -92.43,234.64 -99.54,753.69 -7.11,519.05 49.78,1094.98 -63.99,1137.64 -113.77,42.66 -362.63,-1806.01 -362.63,-1806.01 0,0 -127.99,-632.82 -35.55,-767.91 92.44,-135.09 547.49,-7.11 547.49,-7.11z"/>
  <path class="fil0 str0" d="M14166.1 6233.96c0,0 -106.65,113.76 -312.85,21.33"/>
 </g>
 <g id="Dente_x0020_24">
  <metadata id="CorelCorpID_24Corel-Layer"/>
  <path class="fil0 str0" d="M11621.76 8066.09c0,0 120.34,468 227.31,-1791.74 0,0 70.11,-0.64 80.84,-150.92 10.73,-150.28 6.52,-502.61 6.52,-502.61 0,0 17.34,-107.56 -156.15,-93.68 -173.49,13.88 -409.44,-38.16 -416.38,45.11 -6.94,83.27 -52.04,711.32 27.76,732.14 79.8,20.82 62.45,246.36 62.45,246.36 0,0 65.93,1328.97 97.16,1405.3 31.23,76.33 70.49,110.04 70.49,110.04z"/>
  <path class="fil0 str0" d="M11391.66 6304.39c0,0 375.69,51.07 455.83,3.11"/>
 </g>
 <g id="Dente_x0020_25">
  <metadata id="CorelCorpID_25Corel-Layer"/>
  <path class="fil0 str0" d="M12865.16 8048.68c0,0 120.34,468 227.31,-1791.74 0,0 70.11,-0.64 80.84,-150.92 10.73,-150.28 6.52,-502.61 6.52,-502.61 0,0 17.34,-107.56 -156.15,-93.68 -173.49,13.88 -409.44,-38.16 -416.38,45.11 -6.94,83.27 -52.04,711.32 27.76,732.14 79.8,20.82 62.45,246.36 62.45,246.36 0,0 65.93,1328.97 97.16,1405.3 31.23,76.33 70.49,110.04 70.49,110.04z"/>
  <path class="fil0 str0" d="M12635.06 6286.98c0,0 375.69,51.07 455.83,3.11"/>
 </g>
 <g id="Dente_x0020_26">
  <metadata id="CorelCorpID_26Corel-Layer"/>
  <path class="fil0 str0" d="M10264.35 5553.27l-14.22 689.7c0,0 92.43,234.64 99.54,753.69 7.11,519.05 -49.78,1094.98 63.99,1137.64 113.77,42.66 362.63,-1806.01 362.63,-1806.01 0,0 127.99,-632.82 35.55,-767.91 -92.44,-135.09 -547.49,-7.11 -547.49,-7.11z"/>
  <path class="fil0 str0" d="M10385.22 6278.52c0,0 106.65,113.76 312.85,21.33"/>
 </g>
 <g id="Dente_x0020_27">
  <metadata id="CorelCorpID_27Corel-Layer"/>
  <path class="fil0 str0" d="M9317.09 5398.09c0,0 -300.68,97.4 -389.61,334.55 -88.93,237.15 203.28,918.95 152.46,974.01 0,0 -20.98,1195.52 -64.94,1219.49 -43.96,23.97 31.95,519.47 147.84,243.75 115.89,-275.72 411.59,-1710.25 387.61,-1710.25 -23.98,0 197.08,-490.34 128.93,-783.87 -68.15,-293.53 -428.95,-250.56 -362.29,-277.68z"/>
  <path class="fil0 str0" d="M9123.76 6336.21c0,0 188.7,104.84 387.88,-15.72"/>
 </g>
 <g id="Dente_x0020_28">
  <metadata id="CorelCorpID_28Corel-Layer"/>
  <path class="fil0 str0" d="M7537.48 6000.84l11.95 -388.63c0,0 137.52,-245.14 466.36,-221.22 328.84,23.92 352.75,370.69 322.86,209.26 -29.89,-161.43 131.54,484.3 -95.66,771.29 0,0 -113.38,762.57 -163.52,1008.7 -50.14,246.13 -91.17,656.37 -232.47,729.29 -141.3,72.92 -41.02,-1285.38 -136.74,-1490.49 -95.72,-205.11 -172.78,-618.2 -172.78,-618.2z"/>
  <path class="fil0 str0" d="M7743.45 6395.89c0,0 148.35,82.11 434.44,-39.74"/>
  <path class="fil0 str0" d="M7741.29 5594.58c0,0 118.52,31.9 405.68,-9.12"/>
  <path class="fil0 str0" d="M7881.63 5706.22c0,0 85.59,-92.7 91.16,-214.24"/>
 </g>
 <g id="Dente_x0020_29">
  <metadata id="CorelCorpID_29Corel-Layer"/>
  <path class="fil0 str0" d="M6074.24 5604.17l30.89 623.97c0,0 253.3,691.92 185.34,766.06 0,0 -55.61,1031.71 12.35,1124.38 67.96,92.67 43.24,383.03 376.85,-710.46l111.21 -871.08c0,0 160.62,-420.1 160.62,-481.88 0,-61.78 49.43,-438.62 -12.35,-488.05 -61.78,-49.43 -228.58,-197.7 -327.43,-191.52 -98.85,6.18 -463.35,55.6 -537.48,228.58z"/>
  <path class="fil0 str0" d="M6284.29 5610.35c0,0 302.71,-98.85 426.27,-37.07"/>
  <path class="fil0 str0" d="M6480.21 5706.58c0,0 115.23,-189.7 105.03,-278"/>
  <path class="fil0 str0" d="M6327.53 6376.41c0,0 86.49,154.45 383.03,61.78"/>
 </g>
 <g id="Dente_x0020_30">
  <metadata id="CorelCorpID_30Corel-Layer"/>
  <path class="fil0 str0" d="M4317.91 5509.13c0,0 -286.52,21.5 -257.87,594.54 0,0 121.78,186.23 157.59,551.55 35.81,365.32 -164.76,601.7 -7.17,1189.07 157.59,587.37 300.85,-386.81 300.85,-386.81 0,0 150.43,-544.38 272.2,-458.43 121.77,85.95 222.05,981.33 222.05,981.33 0,0 71.63,472.77 279.36,-372.47 0,0 143.27,-659 85.96,-1095.95 0,0 164.74,-451.27 85.95,-730.63 -78.79,-279.36 -343.82,-372.48 -673.32,-186.24l-350.99 -93.12 -114.61 7.16z"/>
  <path class="fil0 str0" d="M4339.4 6497.63c0,0 479.91,143.26 909.7,-28.65"/>
  <path class="fil0 str0" d="M4446.84 5724.03c0,0 128.94,78.78 766.45,64.46"/>
  <path class="fil0 str0" d="M4733.36 5917.43c0,0 -15.96,-146.38 214.9,-279.36"/>
 </g>
 <g id="Dente_x0020_31">
  <metadata id="CorelCorpID_31Corel-Layer"/>
  <path class="fil0 str0" d="M2333.74 5516.3c0,0 -436.93,-50.14 -136.09,866.73 0,0 -7.16,967.01 50.14,1060.13 57.3,93.12 222.05,623.18 336.66,386.8 0,0 -21.49,-988.49 186.24,-881.05 207.73,107.44 179.07,916.87 193.4,916.87 14.33,0 136.09,444.11 358.15,-823.75 0,0 -28.64,-408.29 7.17,-558.72 35.81,-150.43 372.48,-852.41 -136.1,-974.18 0,0 -343.82,71.64 -479.92,78.8 -136.1,7.16 -379.65,-71.63 -379.65,-71.63z"/>
  <path class="fil0 str0" d="M2348.07 6476.14c0,0 737.79,57.31 845.24,-35.81"/>
  <path class="fil0 str0" d="M2434.03 5745.51c0,0 357.53,93.31 687.65,42.98"/>
  <path class="fil0 str0" d="M2706.22 5946.08c0,0 50.13,-222.06 193.4,-293.69"/>
 </g>
 <g id="Dente_x0020_32">
  <metadata id="CorelCorpID_32Corel-Layer"/>
  <path class="fil0 str0" d="M285.02 5499.02c0,0 -436.96,64.47 -157.59,909.73 0,0 0,630.36 64.47,866.75 64.47,236.39 222.06,1131.8 379.65,-78.79 0,0 186.24,-680.51 336.67,14.32 0,0 14.33,494.26 57.31,558.73 42.98,64.47 200.57,-193.41 286.53,-444.12 85.96,-250.71 42.98,-386.8 64.47,-487.09 21.49,-100.29 -42.98,-479.94 100.28,-594.55 143.26,-114.61 186.25,-852.43 -293.69,-702 -479.94,150.43 -873.8,-32.55 -873.8,-32.55"/>
  <path class="fil0 str0" d="M328 6437.41c0,0 635.64,70.34 845.26,-42.98"/>
  <path class="fil0 str0" d="M428.29 5713.92c0,0 415.46,114.62 673.34,78.8"/>
  <path class="fil0 str0" d="M679 5878.68c0,0 19.35,-115.81 157.59,-207.74"/>
 </g>
</svg>
