<svg xmlns="http://www.w3.org/2000/svg" xml:space="preserve" width="100%" height="100%" version="1.1" style="shape-rendering:geometricPrecision; text-rendering:geometricPrecision; image-rendering:optimizeQuality; fill-rule:evenodd; clip-rule:evenodd" viewBox="0 0 100 100" xmlns:xlink="http://www.w3.org/1999/xlink" xmlns:xodm="http://www.corel.com/coreldraw/odm/2003">
    <defs>
        <style type="text/css">
            <![CDATA[
            .str0 {stroke:#2D2A2B;stroke-width:20;stroke-miterlimit:22.9256}
            .fil0 {fill:none}
            ]]>
        </style>
    </defs>

    <g id="Dente_x0020_1" transform="translate(0,0)">
        <metadata id="CorelCorpID_1Corel-Layer"/>
        <path class="fil0 str0" d="M50.29 50.44c0,0 -1.629,3.151 0.387,3.015 2.015,-0.135 1.722,-0.422 3.064,0.017 1.342,0.44 2.262,-0.135 2.423,-0.797 0.161,-0.662 -0.517,-2.639 -0.517,-2.639 0,0 -0.246,-1.001 -0.207,-2.494 0.039,-1.493 -0.788,-1.501 -1.112,-0.25 -0.324,1.251 -1.061,2.327 -1.571,1.29 -0.51,-1.038 0.039,-2.377 -0.642,-2.193 -0.681,0.185 -0.885,0.45 -1.051,1.257 -0.166,0.807 -0.166,0.807 -0.166,0.807z"/>
        <path class="fil0 str0" d="M53.01 46.5c0,0 0.875,-3.531 1.05,0.523"/>
        <path class="fil0 str0" d="M50.41 51.65c0,0 0.32,0.16 1.542,0.062 1.222,-0.099 1.342,0.159 1.498,0.193"/>
        <path class="fil0 str0" d="M50.77 50.22c0,0 1.74,-0.521 2.246,0.126"/>
        <path class="fil0 str0" d="M51.51 52.39c0,0 0.042,0.18 -0.023,0.309"/>
    </g>
</svg>
