<svg xmlns="http://www.w3.org/2000/svg" xml:space="preserve" width="100%" height="100%"
    version="1.1"
    style="shape-rendering:geometricPrecision; text-rendering:geometricPrecision; image-rendering:optimizeQuality; fill-rule:evenodd; clip-rule:evenodd"
    viewBox="0 0 100 100"
    xmlns:xlink="http://www.w3.org/1999/xlink"
    xmlns:xodm="http://www.corel.com/coreldraw/odm/2003">
 <defs>
  <style type="text/css">
   <![CDATA[
    .str0 {stroke:#2D2A2B;stroke-width:20;stroke-miterlimit:22.9256}
    .fil0 {fill:none}
   ]]>
  </style>
 </defs>

 <g id="Dente_x0020_3" transform="translate(0,0)">
  <metadata id="CorelCorpID_3Corel-Layer"/>
  <path class="fil0 str0" d="M7555.05 7041.51c0,0 -405.28,953.08 191.5,912.99 596.78,-40.09 89.08,-138.07 636.87,8.9 547.79,146.97 409.72,-485.44 405.27,-552.24 -4.45,-66.8 -146.97,-507.71 -111.34,-610.14 35.63,-102.43 59.91,-1221.78 -133.61,-977.33 -193.52,244.45 -268.21,858.98 -421,774.1 -152.79,-84.88 -264.83,-651.87 -291.99,-719.78 -27.16,-67.91 -108.64,-224.08 -203.71,78.09 -95.07,302.17 -83.11,1112.99 -71.99,1085.41z"/>
  <path class="fil0 str0" d="M7864.51 6000.14c0,0 91.87,-291.88 166.56,-169.66 74.69,122.22 201.46,705.46 201.46,705.46"/>
  <path class="fil0 str0" d="M7731.92 7041.42c0,0 506.62,-219.09 812.42,-4.57"/>
  <path class="fil0 str0" d="M7716.48 7704.78c0,0 173.91,145.59 380.17,-4.05 0,0 214.36,-38.42 333.66,101.11"/>
  <path class="fil0 str0" d="M8098.67 7607.71c0,0 38.42,179.98 -10.11,192.11"/>
 </g>

</svg>