<svg xmlns="http://www.w3.org/2000/svg" xml:space="preserve" width="210mm" height="297mm" version="1.1" style="shape-rendering:geometricPrecision; text-rendering:geometricPrecision; image-rendering:optimizeQuality; fill-rule:evenodd; clip-rule:evenodd"
viewBox="0 0 21000 29700"
 xmlns:xlink="http://www.w3.org/1999/xlink"
 xmlns:xodm="http://www.corel.com/coreldraw/odm/2003">
 <defs>
  <style type="text/css">
   <![CDATA[
    .str0 {stroke:#2D2A2B;stroke-width:20;stroke-miterlimit:22.9256}
    .fil0 {fill:none}
   ]]>
  </style>
 </defs>
 <g id="Odontograma_x0020_Geral" visibility="hidden">
  <metadata id="CorelCorpID_0Corel-Layer"/>
  <image id="Dente_x0020_1" x="311.88" y="3766.2" width="30056.97" height="12523.74" xlink:href="7_Images/7_ImgID1.png"/>
 </g>
 <g id="Dente_x0020_1_36" visibility="hidden">
  <metadata id="CorelCorpID_1Corel-Layer"/>
  <path id="Dente_x0020_1_37" class="fil0 str0" d="M3543.23 7051.91c0,0 -342.13,928.66 81.46,896.07 423.59,-32.59 362.5,-101.83 643.54,4.07 281.04,105.9 476.54,-32.58 513.2,-191.43 36.66,-158.85 -118.11,-631.33 -118.11,-631.33 0,0 -58.51,-297.77 -49.27,-741.26 9.24,-443.49 -184.8,-446.57 -261.79,-73.91 -76.99,372.66 -252.55,692.97 -372.66,384.98 -120.11,-307.99 9.24,-705.29 -150.91,-652.93 -160.15,52.36 -207.3,127.64 -246.38,566.69 -39.08,439.05 -39.08,439.05 -39.08,439.05z"/>
  <path id="Dente_x0020_1_38" class="fil0 str0" d="M3942.66 6567.63c0,0 276.88,-1114.88 332.25,16.45"/>
  <path id="Dente_x0020_1_39" class="fil0 str0" d="M3654.31 7679.54c0,0 101.44,50.73 388.86,19.73 287.42,-31 315.59,50.72 352.23,61.99"/>
  <path id="Dente_x0020_1_40" class="fil0 str0" d="M3707.18 7078.16c0,0 646.51,-193.62 835.24,46.87"/>
  <path id="Dente_x0020_1_41" class="fil0 str0" d="M4080.05 7572.48c0,0 62.43,135.76 -34.09,234.38"/>
 </g>
 <g id="Dente_x0020_2" visibility="hidden">
  <metadata id="CorelCorpID_2Corel-Layer"/>
  <path class="fil0 str0" d="M5984.98 5971.05c0,0 6.08,-257.94 -217.38,12.02 -223.46,269.96 -257.07,1045.47 -242.57,1075.36"/>
  <path class="fil0 str0" d="M5712.66 7028.77c0,0 530.31,-176.78 791.94,4.71"/>
  <path class="fil0 str0" d="M6238.25 6508.25c0,0 -94.78,-768.76 -257.25,-539.21"/>
  <path class="fil0 str0" d="M5657.16 7660.54c0,0 94.9,115.09 407.85,28.27"/>
  <path class="fil0 str0" d="M6424.4 7753.41c0,0 -236.22,-109.01 -359.39,-64.6"/>
  <path class="fil0 str0" d="M6046.83 7795.81c0,0 76.73,-113.06 54.52,-203.92"/>
  <path class="fil0 str0" d="M5521.94 7056.9c0,0 -457.3,1127.94 466.09,876.5l156.06 -43.35c0,0 268.79,112.7 390.17,65.02 121.38,-47.68 312.13,-255.77 221.09,-533.22 -91.04,-277.45 -117.04,-476.86 -112.71,-498.54 4.33,-21.68 -8.49,-799.03 -64.67,-799.03 0,0 -64.16,-274.77 -178.97,-225.2 -114.81,49.57 -151.1,525.99 -165.57,594.37 -14.47,68.38 -147.55,313.65 -199.73,149.27 -52.18,-164.38 -103.75,-656.35 -55.79,-675.21"/>
 </g>
 <g id="Dente_x0020_3" visibility="hidden">
  <metadata id="CorelCorpID_3Corel-Layer"/>
  <path class="fil0 str0" d="M7555.05 7041.51c0,0 -405.28,953.08 191.5,912.99 596.78,-40.09 89.08,-138.07 636.87,8.9 547.79,146.97 409.72,-485.44 405.27,-552.24 -4.45,-66.8 -146.97,-507.71 -111.34,-610.14 35.63,-102.43 59.91,-1221.78 -133.61,-977.33 -193.52,244.45 -268.21,858.98 -421,774.1 -152.79,-84.88 -264.83,-651.87 -291.99,-719.78 -27.16,-67.91 -108.64,-224.08 -203.71,78.09 -95.07,302.17 -83.11,1112.99 -71.99,1085.41z"/>
  <path class="fil0 str0" d="M7864.51 6000.14c0,0 91.87,-291.88 166.56,-169.66 74.69,122.22 201.46,705.46 201.46,705.46"/>
  <path class="fil0 str0" d="M7731.92 7041.42c0,0 506.62,-219.09 812.42,-4.57"/>
  <path class="fil0 str0" d="M7716.48 7704.78c0,0 173.91,145.59 380.17,-4.05 0,0 214.36,-38.42 333.66,101.11"/>
  <path class="fil0 str0" d="M8098.67 7607.71c0,0 38.42,179.98 -10.11,192.11"/>
 </g>
 <g id="Dente_x0020_4" visibility="hidden">
  <metadata id="CorelCorpID_4Corel-Layer"/>
  <path class="fil0 str0" d="M9499.6 7096.69c0,0 -147,594.42 -57.52,683.9 89.48,89.48 345.14,313.18 639.15,178.96 294.01,-134.22 223.7,-472.98 204.53,-530.5 -19.17,-57.52 -172.57,-485.75 -166.18,-530.49 6.39,-44.74 -134.23,-613.6 -121.44,-722.25 12.79,-108.65 19.17,-658.32 -76.7,-690.28 0,0 -115.04,-236.48 -147,108.66 -31.96,345.14 -321.44,1720.1 -274.84,1502z"/>
  <path class="fil0 str0" d="M9640.22 7135.04c0,0 265.02,-177.8 415.45,-57.52"/>
  <path class="fil0 str0" d="M9635.01 7836.01c0,0 387.38,-67.91 472.51,0"/>
  <path class="fil0 str0" d="M9889.44 7898.18c0,0 51.66,-215.21 -39.21,-195.12"/>
 </g>
 <g id="Dente_x0020_5" visibility="hidden">
  <metadata id="CorelCorpID_5Corel-Layer"/>
  <path class="fil0 str0" d="M10904.15 7059.31c0,0 -254.26,423.76 -93.23,767 0,0 216.11,211.88 432.23,173.74 0,0 457.65,-97.47 427.99,-457.66 0,0 -161.03,-745.8 -169.5,-805.13 -8.47,-59.33 -230.56,-1528.27 -320.73,-1514.4 -90.17,13.87 -110.97,110.99 -173.4,575.72 -62.43,464.73 6.93,1255.48 -103.36,1260.73z"/>
  <path class="fil0 str0" d="M10999.67 7087.29c0,0 294.27,-129 471.65,36.28"/>
  <path class="fil0 str0" d="M10975.48 7788.72c0,0 229.77,-32.26 431.34,20.15"/>
  <path class="fil0 str0" d="M11183.07 7683.92c0,0 -40.81,93.95 24.92,184.33"/>
 </g>
 <g id="Dente_x0020_6" visibility="hidden">
  <metadata id="CorelCorpID_6Corel-Layer"/>
  <path class="fil0 str0" d="M12197.51 7083.43c0,0 -392.48,836.8 348.05,888.64"/>
  <path class="fil0 str0" d="M12893.61 7690.67c0,0 -88.86,303.61 -348.05,281.4"/>
  <path class="fil0 str0" d="M12782.53 6646.52c0,0 162.92,755.34 111.08,1044.15"/>
  <path class="fil0 str0" d="M12782.53 6646.52c0,0 -143.56,-1750.82 -252.48,-1734.06 -108.92,16.76 -92.16,259.73 -134.05,335.14 -41.89,75.41 -198.49,1835.83 -198.49,1835.83"/>
  <path class="fil0 str0" d="M12303.83 7065.73c0,0 75.41,-92.16 402.17,0"/>
 </g>
 <g id="Dente_x0020_7">
  <metadata id="CorelCorpID_7Corel-Layer"/>
  <path class="fil0 str0" d="M13403 7087.93l-31.68 766.59c0,0 215.41,171.07 728.58,38.02l6.33 -760.26c0,0 -164.71,-367.46 -171.05,-823.61 -6.34,-456.15 -196.41,-1368.47 -247.09,-1140.39 -50.68,228.08 -171.04,1121.39 -183.72,1381.14 -12.68,259.75 -105.05,627.33 -101.37,538.51z"/>
  <path class="fil0 str0" d="M13536.04 7024.58c0,0 69.69,-171.06 367.46,-57.02"/>
 </g>
 <g id="Dente_x0020_8" visibility="hidden">
  <metadata id="CorelCorpID_8Corel-Layer"/>
  <path class="fil0 str0" d="M14557.05 7068.99l0 756.26c0,0 232.7,274.24 839.37,33.24 0,0 8.3,-831.06 -49.87,-831.06 -58.17,0 -315.8,-1844.94 -315.8,-1844.94 0,0 -124.65,-540.18 -224.38,-8.31 -99.73,531.87 -157.91,2019.47 -249.32,1894.81z"/>
  <path class="fil0 str0" d="M14714.14 6908.32c0,0 344.64,-225.36 502.32,-9.66"/>
 </g>
 <g id="Dente_x0020_25" visibility="hidden">
  <metadata id="CorelCorpID_9Corel-Layer"/>
  <path class="fil0 str0" d="M14711.85 10304.98c0,0 6.34,652.6 44.35,760.31 38.01,107.71 84.83,1802.93 194.13,1824.79 109.3,21.86 262.32,-1799.77 262.32,-1799.77 72.86,-459.05 255.03,-969.11 -500.8,-785.33z"/>
  <path class="fil0 str0" d="M14756.2 11065.29c0,0 106.7,61.45 456.45,25.02"/>
 </g>
 <g id="Dente_x0020_26" visibility="hidden">
  <metadata id="CorelCorpID_10Corel-Layer"/>
  <path class="fil0 str0" d="M13612.48 10325.52l-14.22 689.7c0,0 92.43,234.64 99.54,753.69 7.11,519.05 -49.78,1094.98 63.99,1137.64 113.77,42.66 362.63,-1806.01 362.63,-1806.01 0,0 127.99,-632.82 35.55,-767.91 -92.44,-135.09 -547.49,-7.11 -547.49,-7.11z"/>
  <path class="fil0 str0" d="M13733.35 11050.77c0,0 106.65,113.76 312.85,21.33"/>
 </g>
 <g id="Dente_x0020_27" visibility="hidden">
  <metadata id="CorelCorpID_11Corel-Layer"/>
  <path class="fil0 str0" d="M12665.22 10170.34c0,0 -300.68,97.4 -389.61,334.55 -88.93,237.15 203.28,918.95 152.46,974.01 0,0 -20.98,1195.52 -64.94,1219.49 -43.96,23.97 31.95,519.47 147.84,243.75 115.89,-275.72 411.59,-1710.25 387.61,-1710.25 -23.98,0 197.08,-490.34 128.93,-783.87 -68.15,-293.53 -428.95,-250.56 -362.29,-277.68z"/>
  <path class="fil0 str0" d="M12471.89 11108.46c0,0 188.7,104.84 387.88,-15.72"/>
 </g>
 <g id="Dente_x0020_28" visibility="hidden">
  <metadata id="CorelCorpID_12Corel-Layer"/>
  <path class="fil0 str0" d="M10885.61 10773.09l11.95 -388.63c0,0 137.52,-245.14 466.36,-221.22 328.84,23.92 352.75,370.69 322.86,209.26 -29.89,-161.43 131.54,484.3 -95.66,771.29 0,0 -113.38,762.57 -163.52,1008.7 -50.14,246.13 -91.17,656.37 -232.47,729.29 -141.3,72.92 -41.02,-1285.38 -136.74,-1490.49 -95.72,-205.11 -172.78,-618.2 -172.78,-618.2z"/>
  <path class="fil0 str0" d="M11091.58 11168.14c0,0 148.35,82.11 434.44,-39.74"/>
  <path class="fil0 str0" d="M11089.42 10366.83c0,0 118.52,31.9 405.68,-9.12"/>
  <path class="fil0 str0" d="M11229.76 10478.47c0,0 85.59,-92.7 91.16,-214.24"/>
 </g>
 <g id="Dente_x0020_29" visibility="hidden">
  <metadata id="CorelCorpID_13Corel-Layer"/>
  <path class="fil0 str0" d="M9422.37 10376.42l30.89 623.97c0,0 253.3,691.92 185.34,766.06 0,0 -55.61,1031.71 12.35,1124.38 67.96,92.67 43.24,383.03 376.85,-710.46l111.21 -871.08c0,0 160.62,-420.1 160.62,-481.88 0,-61.78 49.43,-438.62 -12.35,-488.05 -61.78,-49.43 -228.58,-197.7 -327.43,-191.52 -98.85,6.18 -463.35,55.6 -537.48,228.58z"/>
  <path class="fil0 str0" d="M9632.42 10382.6c0,0 302.71,-98.85 426.27,-37.07"/>
  <path class="fil0 str0" d="M9828.34 10478.83c0,0 115.23,-189.7 105.03,-278"/>
  <path class="fil0 str0" d="M9675.66 11148.66c0,0 86.49,154.45 383.03,61.78"/>
 </g>
 <g id="Dente_x0020_30" visibility="hidden">
  <metadata id="CorelCorpID_14Corel-Layer"/>
  <path class="fil0 str0" d="M7666.04 10281.38c0,0 -286.52,21.5 -257.87,594.54 0,0 121.78,186.23 157.59,551.55 35.81,365.32 -164.76,601.7 -7.17,1189.07 157.59,587.37 300.85,-386.81 300.85,-386.81 0,0 150.43,-544.38 272.2,-458.43 121.77,85.95 222.05,981.33 222.05,981.33 0,0 71.63,472.77 279.36,-372.47 0,0 143.27,-659 85.96,-1095.95 0,0 164.74,-451.27 85.95,-730.63 -78.79,-279.36 -343.82,-372.48 -673.32,-186.24l-350.99 -93.12 -114.61 7.16z"/>
  <path class="fil0 str0" d="M7687.53 11269.88c0,0 479.91,143.26 909.7,-28.65"/>
  <path class="fil0 str0" d="M7794.97 10496.28c0,0 128.94,78.78 766.45,64.46"/>
  <path class="fil0 str0" d="M8081.49 10689.68c0,0 -15.96,-146.38 214.9,-279.36"/>
 </g>
 <g id="Dente_x0020_31" visibility="hidden">
  <metadata id="CorelCorpID_15Corel-Layer"/>
  <path class="fil0 str0" d="M5681.87 10288.55c0,0 -436.93,-50.14 -136.09,866.73 0,0 -7.16,967.01 50.14,1060.13 57.3,93.12 222.05,623.18 336.66,386.8 0,0 -21.49,-988.49 186.24,-881.05 207.73,107.44 179.07,916.87 193.4,916.87 14.33,0 136.09,444.11 358.15,-823.75 0,0 -28.64,-408.29 7.17,-558.72 35.81,-150.43 372.48,-852.41 -136.1,-974.18 0,0 -343.82,71.64 -479.92,78.8 -136.1,7.16 -379.65,-71.63 -379.65,-71.63z"/>
  <path class="fil0 str0" d="M5696.2 11248.39c0,0 737.79,57.31 845.24,-35.81"/>
  <path class="fil0 str0" d="M5782.16 10517.76c0,0 357.53,93.31 687.65,42.98"/>
  <path class="fil0 str0" d="M6054.35 10718.33c0,0 50.13,-222.06 193.4,-293.69"/>
 </g>
 <g id="Dente_x0020_32" visibility="hidden">
  <metadata id="CorelCorpID_16Corel-Layer"/>
  <path class="fil0 str0" d="M3633.15 10271.27c0,0 -436.96,64.47 -157.59,909.73 0,0 0,630.36 64.47,866.75 64.47,236.39 222.06,1131.8 379.65,-78.79 0,0 186.24,-680.51 336.67,14.32 0,0 14.33,494.26 57.31,558.73 42.98,64.47 200.57,-193.41 286.53,-444.12 85.96,-250.71 42.98,-386.8 64.47,-487.09 21.49,-100.29 -42.98,-479.94 100.28,-594.55 143.26,-114.61 186.25,-852.43 -293.69,-702 -479.94,150.43 -873.8,-32.55 -873.8,-32.55"/>
  <path class="fil0 str0" d="M3676.13 11209.66c0,0 635.64,70.34 845.26,-42.98"/>
  <path class="fil0 str0" d="M3776.42 10486.17c0,0 415.46,114.62 673.34,78.8"/>
  <path class="fil0 str0" d="M4027.13 10650.93c0,0 19.35,-115.81 157.59,-207.74"/>
 </g>
</svg>
