<?xml version="1.0" encoding="UTF-8"?>
<!DOCTYPE svg PUBLIC "-//W3C//DTD SVG 1.1//EN" "http://www.w3.org/Graphics/SVG/1.1/DTD/svg11.dtd">
<!-- Creator: CorelDRAW -->
<svg xmlns="http://www.w3.org/2000/svg" xml:space="preserve" width="246.243mm" height="29.815mm" version="1.1" style="shape-rendering:geometricPrecision; text-rendering:geometricPrecision; image-rendering:optimizeQuality; fill-rule:evenodd; clip-rule:evenodd"
viewBox="0 0 24624.3 2981.5">
 <g id="Camada_x0020_1">
  <metadata id="CorelCorpID_0Corel-Layer"/>
  <g id="_656914288">
   <path  d="M24336.45 147.12c0,0 436.96,64.47 157.59,909.73 0,0 0,630.36 -64.47,866.75 -64.47,236.39 -222.06,1131.8 -379.65,-78.79 0,0 -186.24,-680.51 -336.67,14.32 0,0 -14.33,494.26 -57.31,558.73 -42.98,64.47 -200.57,-193.41 -286.53,-444.12 -85.96,-250.71 -42.98,-386.8 -64.47,-487.09 -21.49,-100.29 42.98,-479.94 -100.28,-594.55 -143.26,-114.61 -186.25,-852.43 293.69,-702 479.94,150.43 873.8,-32.55 873.8,-32.55"/>
   <path  d="M24293.47 1085.51c0,0 -635.64,70.34 -845.26,-42.98"/>
   <path  d="M24193.18 362.02c0,0 -415.46,114.62 -673.34,78.8"/>
   <path  d="M23942.47 526.78c0,0 -19.35,-115.81 -157.59,-207.74"/>
  </g>
  <g id="_658644776">
   <path  d="M22183.32 181.38c0,0 436.93,-50.14 136.09,866.73 0,0 7.16,967.01 -50.14,1060.13 -57.3,93.12 -222.05,623.18 -336.66,386.8 0,0 21.49,-988.49 -186.24,-881.05 -207.73,107.44 -179.07,916.87 -193.4,916.87 -14.33,0 -136.09,444.11 -358.15,-823.75 0,0 28.64,-408.29 -7.17,-558.72 -35.81,-150.43 -372.48,-852.41 136.1,-974.18 0,0 343.82,71.64 479.92,78.8 136.1,7.16 379.65,-71.63 379.65,-71.63z"/>
   <path  d="M22168.99 1141.22c0,0 -737.79,57.31 -845.24,-35.81"/>
   <path  d="M22083.03 410.59c0,0 -357.53,93.31 -687.65,42.98"/>
   <path  d="M21810.84 611.16c0,0 -50.13,-222.06 -193.4,-293.69"/>
  </g>
  <g id="_658672872">
   <path  d="M20242.05 263.16c0,0 286.52,21.5 257.87,594.54 0,0 -121.78,186.23 -157.59,551.55 -35.81,365.32 164.76,601.7 7.17,1189.07 -157.59,587.37 -300.85,-386.81 -300.85,-386.81 0,0 -150.43,-544.38 -272.2,-458.43 -121.77,85.95 -222.05,981.33 -222.05,981.33 0,0 -71.63,472.77 -279.36,-372.47 0,0 -143.27,-659 -85.96,-1095.95 0,0 -164.74,-451.27 -85.95,-730.63 78.79,-279.36 343.82,-372.48 673.32,-186.24l350.99 -93.12 114.61 7.16z"/>
   <path  d="M20220.56 1251.66c0,0 -479.91,143.26 -909.7,-28.65"/>
   <path  d="M20113.12 478.06c0,0 -128.94,78.78 -766.45,64.46"/>
   <path  d="M19826.6 671.46c0,0 15.96,-146.38 -214.9,-279.36"/>
  </g>
  <g id="_659205960">
   <path  d="M18507.7 321.71l-30.89 623.97c0,0 -253.3,691.92 -185.34,766.06 0,0 55.61,1031.71 -12.35,1124.38 -67.96,92.67 -43.24,383.03 -376.85,-710.46l-111.21 -871.08c0,0 -160.62,-420.1 -160.62,-481.88 0,-61.78 -49.43,-438.62 12.35,-488.05 61.78,-49.43 228.58,-197.7 327.43,-191.52 98.85,6.18 463.35,55.6 537.48,228.58z"/>
   <path  d="M18297.65 327.89c0,0 -302.71,-98.85 -426.27,-37.07"/>
   <path  d="M18101.73 424.12c0,0 -115.23,-189.7 -105.03,-278"/>
   <path  d="M18254.41 1093.95c0,0 -86.49,154.45 -383.03,61.78"/>
  </g>
  <g id="_714668944">
   <path  d="M16995.63 682.46l-11.95 -388.63c0,0 -137.52,-245.14 -466.36,-221.22 -328.84,23.92 -352.75,370.69 -322.86,209.26 29.89,-161.43 -131.54,484.3 95.66,771.29 0,0 113.38,762.57 163.52,1008.7 50.14,246.13 91.17,656.37 232.47,729.29 141.3,72.92 41.02,-1285.38 136.74,-1490.49 95.72,-205.11 172.78,-618.2 172.78,-618.2z"/>
   <path  d="M16789.66 1077.51c0,0 -148.35,82.11 -434.44,-39.74"/>
   <path  d="M16791.82 276.2c0,0 -118.52,31.9 -405.68,-9.12"/>
   <path  d="M16651.48 387.84c0,0 -85.59,-92.7 -91.16,-214.24"/>
  </g>
  <g id="_715593456">
   <path  d="M15167.93 97.44c0,0 300.68,97.4 389.61,334.55 88.93,237.15 -203.28,918.95 -152.46,974.01 0,0 20.98,1195.52 64.94,1219.49 43.96,23.97 -31.95,519.47 -147.84,243.75 -115.89,-275.72 -411.59,-1710.25 -387.61,-1710.25 23.98,0 -197.08,-490.34 -128.93,-783.87 68.15,-293.53 428.95,-250.56 362.29,-277.68z"/>
   <path  d="M15361.26 1035.56c0,0 -188.7,104.84 -387.88,-15.72"/>
  </g>
  <g id="_713309744">
   <path  d="M14315.92 227.03l14.22 689.7c0,0 -92.43,234.64 -99.54,753.69 -7.11,519.05 49.78,1094.98 -63.99,1137.64 -113.77,42.66 -362.63,-1806.01 -362.63,-1806.01 0,0 -127.99,-632.82 -35.55,-767.91 92.44,-135.09 547.49,-7.11 547.49,-7.11z"/>
   <path  d="M14195.05 952.28c0,0 -106.65,113.76 -312.85,21.33"/>
  </g>
  <g id="_713619816">
   <path  d="M11650.71 2784.41c0,0 120.34,468 227.31,-1791.74 0,0 70.11,-0.64 80.84,-150.92 10.73,-150.28 6.52,-502.61 6.52,-502.61 0,0 17.34,-107.56 -156.15,-93.68 -173.49,13.88 -409.44,-38.16 -416.38,45.11 -6.94,83.27 -52.04,711.32 27.76,732.14 79.8,20.82 62.45,246.36 62.45,246.36 0,0 65.93,1328.97 97.16,1405.3 31.23,76.33 70.49,110.04 70.49,110.04z"/>
   <path  d="M11420.61 1022.71c0,0 375.69,51.07 455.83,3.11"/>
  </g>
  <g id="_693858160">
   <path  d="M12894.11 2767c0,0 120.34,468 227.31,-1791.74 0,0 70.11,-0.64 80.84,-150.92 10.73,-150.28 6.52,-502.61 6.52,-502.61 0,0 17.34,-107.56 -156.15,-93.68 -173.49,13.88 -409.44,-38.16 -416.38,45.11 -6.94,83.27 -52.04,711.32 27.76,732.14 79.8,20.82 62.45,246.36 62.45,246.36 0,0 65.93,1328.97 97.16,1405.3 31.23,76.33 70.49,110.04 70.49,110.04z"/>
   <path  d="M12664.01 1005.3c0,0 375.69,51.07 455.83,3.11"/>
  </g>
  <g id="_713999744">
   <path  d="M10293.3 271.59l-14.22 689.7c0,0 92.43,234.64 99.54,753.69 7.11,519.05 -49.78,1094.98 63.99,1137.64 113.77,42.66 362.63,-1806.01 362.63,-1806.01 0,0 127.99,-632.82 35.55,-767.91 -92.44,-135.09 -547.49,-7.11 -547.49,-7.11z"/>
   <path  d="M10414.17 996.84c0,0 106.65,113.76 312.85,21.33"/>
  </g>
  <g id="_715591392">
   <path  d="M9346.04 116.41c0,0 -300.68,97.4 -389.61,334.55 -88.93,237.15 203.28,918.95 152.46,974.01 0,0 -20.98,1195.52 -64.94,1219.49 -43.96,23.97 31.95,519.47 147.84,243.75 115.89,-275.72 411.59,-1710.25 387.61,-1710.25 -23.98,0 197.08,-490.34 128.93,-783.87 -68.15,-293.53 -428.95,-250.56 -362.29,-277.68z"/>
   <path  d="M9152.71 1054.53c0,0 188.7,104.84 387.88,-15.72"/>
  </g>
  <g id="_713633576">
   <path  d="M7566.43 719.16l11.95 -388.63c0,0 137.52,-245.14 466.36,-221.22 328.84,23.92 352.75,370.69 322.86,209.26 -29.89,-161.43 131.54,484.3 -95.66,771.29 0,0 -113.38,762.57 -163.52,1008.7 -50.14,246.13 -91.17,656.37 -232.47,729.29 -141.3,72.92 -41.02,-1285.38 -136.74,-1490.49 -95.72,-205.11 -172.78,-618.2 -172.78,-618.2z"/>
   <path  d="M7772.4 1114.21c0,0 148.35,82.11 434.44,-39.74"/>
   <path  d="M7770.24 312.9c0,0 118.52,31.9 405.68,-9.12"/>
   <path  d="M7910.58 424.54c0,0 85.59,-92.7 91.16,-214.24"/>
  </g>
  <g id="_656831768">
   <path  d="M6103.19 322.49l30.89 623.97c0,0 253.3,691.92 185.34,766.06 0,0 -55.61,1031.71 12.35,1124.38 67.96,92.67 43.24,383.03 376.85,-710.46l111.21 -871.08c0,0 160.62,-420.1 160.62,-481.88 0,-61.78 49.43,-438.62 -12.35,-488.05 -61.78,-49.43 -228.58,-197.7 -327.43,-191.52 -98.85,6.18 -463.35,55.6 -537.48,228.58z"/>
   <path  d="M6313.24 328.67c0,0 302.71,-98.85 426.27,-37.07"/>
   <path  d="M6509.16 424.9c0,0 115.23,-189.7 105.03,-278"/>
   <path  d="M6356.48 1094.73c0,0 86.49,154.45 383.03,61.78"/>
  </g>
  <g id="_728461016">
   <path  d="M4346.86 227.45c0,0 -286.52,21.5 -257.87,594.54 0,0 121.78,186.23 157.59,551.55 35.81,365.32 -164.76,601.7 -7.17,1189.07 157.59,587.37 300.85,-386.81 300.85,-386.81 0,0 150.43,-544.38 272.2,-458.43 121.77,85.95 222.05,981.33 222.05,981.33 0,0 71.63,472.77 279.36,-372.47 0,0 143.27,-659 85.96,-1095.95 0,0 164.74,-451.27 85.95,-730.63 -78.79,-279.36 -343.82,-372.48 -673.32,-186.24l-350.99 -93.12 -114.61 7.16z"/>
   <path  d="M4368.35 1215.95c0,0 479.91,143.26 909.7,-28.65"/>
   <path  d="M4475.79 442.35c0,0 128.94,78.78 766.45,64.46"/>
   <path  d="M4762.31 635.75c0,0 -15.96,-146.38 214.9,-279.36"/>
  </g>
  <g id="_659017808">
   <path  d="M2362.69 234.62c0,0 -436.93,-50.14 -136.09,866.73 0,0 -7.16,967.01 50.14,1060.13 57.3,93.12 222.05,623.18 336.66,386.8 0,0 -21.49,-988.49 186.24,-881.05 207.73,107.44 179.07,916.87 193.4,916.87 14.33,0 136.09,444.11 358.15,-823.75 0,0 -28.64,-408.29 7.17,-558.72 35.81,-150.43 372.48,-852.41 -136.1,-974.18 0,0 -343.82,71.64 -479.92,78.8 -136.1,7.16 -379.65,-71.63 -379.65,-71.63z"/>
   <path  d="M2377.02 1194.46c0,0 737.79,57.31 845.24,-35.81"/>
   <path  d="M2462.98 463.83c0,0 357.53,93.31 687.65,42.98"/>
   <path  d="M2735.17 664.4c0,0 50.13,-222.06 193.4,-293.69"/>
  </g>
  <g id="_659172120">
   <path  d="M313.97 217.34c0,0 -436.96,64.47 -157.59,909.73 0,0 0,630.36 64.47,866.75 64.47,236.39 222.06,1131.8 379.65,-78.79 0,0 186.24,-680.51 336.67,14.32 0,0 14.33,494.26 57.31,558.73 42.98,64.47 200.57,-193.41 286.53,-444.12 85.96,-250.71 42.98,-386.8 64.47,-487.09 21.49,-100.29 -42.98,-479.94 100.28,-594.55 143.26,-114.61 186.25,-852.43 -293.69,-702 -479.94,150.43 -873.8,-32.55 -873.8,-32.55"/>
   <path  d="M356.95 1155.73c0,0 635.64,70.34 845.26,-42.98"/>
   <path  d="M457.24 432.24c0,0 415.46,114.62 673.34,78.8"/>
   <path  d="M707.95 597c0,0 19.35,-115.81 157.59,-207.74"/>
  </g>
 </g>
</svg>
