<svg width="270" height="53" viewBox="0 0 270 53" fill="none" xmlns="http://www.w3.org/2000/svg">
    <path d="M11.36 41.7316C8.10667 41.7316 5.06667 41.2849 2.24 40.3916V35.7916C3.6 36.2449 5.11333 36.5982 6.78 36.8516C8.44667 37.0916 9.99333 37.2116 11.42 37.2116C13.7933 37.2116 15.5133 36.8649 16.58 36.1716C17.6467 35.4649 18.18 34.4316 18.18 33.0716C18.18 32.3116 18.0067 31.6849 17.66 31.1916C17.3267 30.6849 16.7733 30.2649 16 29.9316C15.24 29.5982 14.18 29.2982 12.82 29.0316L10.6 28.6116C7.46667 27.9982 5.18667 27.0116 3.76 25.6516C2.33333 24.2782 1.62 22.4516 1.62 20.1716C1.62 17.3716 2.70667 15.2049 4.88 13.6716C7.05333 12.1382 10.26 11.3716 14.5 11.3716C17.3933 11.3716 20.02 11.7049 22.38 12.3716V16.9716C21.26 16.6249 20.02 16.3582 18.66 16.1716C17.3133 15.9849 15.96 15.8916 14.6 15.8916C12.0533 15.8916 10.2 16.2449 9.04 16.9516C7.89333 17.6449 7.32 18.6516 7.32 19.9716C7.32 20.7049 7.46667 21.3182 7.76 21.8116C8.05333 22.3049 8.54 22.7182 9.22 23.0516C9.91333 23.3849 10.8667 23.6716 12.08 23.9116L14.3 24.3316C16.5933 24.7849 18.44 25.3916 19.84 26.1516C21.2533 26.8982 22.28 27.8182 22.92 28.9116C23.56 30.0049 23.88 31.2982 23.88 32.7916C23.88 34.6582 23.38 36.2649 22.38 37.6116C21.3933 38.9449 19.96 39.9649 18.08 40.6716C16.2 41.3782 13.96 41.7316 11.36 41.7316ZM45.4116 19.5316H50.9516L37.9316 50.1516H32.3916L36.1516 41.3516H34.7916L25.5516 19.5316H31.5316L38.4116 36.6916L45.4116 19.5316ZM60.9031 41.7516C57.9431 41.7516 55.3231 41.4249 53.0431 40.7716V36.8316C55.5231 37.5249 58.1365 37.8716 60.8831 37.8716C62.7098 37.8716 64.0165 37.6449 64.8031 37.1916C65.6031 36.7382 66.0031 36.0716 66.0031 35.1916C66.0031 34.5116 65.8031 33.9916 65.4031 33.6316C65.0031 33.2716 64.2765 33.0116 63.2231 32.8516L59.1431 32.2516C56.8231 31.9049 55.1498 31.2182 54.1231 30.1916C53.0965 29.1649 52.5831 27.7849 52.5831 26.0516C52.5831 23.9182 53.4831 22.2449 55.2831 21.0316C57.0965 19.8049 59.8565 19.1916 63.5631 19.1916C64.7231 19.1916 65.8765 19.2649 67.0231 19.4116C68.1831 19.5582 69.2231 19.7582 70.1431 20.0116V23.9516C68.1165 23.3782 65.9365 23.0916 63.6031 23.0916C61.4965 23.0916 60.0298 23.3316 59.2031 23.8116C58.3765 24.2916 57.9631 24.9582 57.9631 25.8116C57.9631 26.4249 58.1631 26.9249 58.5631 27.3116C58.9631 27.6982 59.6631 27.9782 60.6631 28.1516L64.7431 28.7516C67.0098 29.0849 68.6831 29.7249 69.7631 30.6716C70.8431 31.6182 71.3831 33.0316 71.3831 34.9116C71.3831 36.3249 70.9831 37.5449 70.1831 38.5716C69.3965 39.5982 68.2165 40.3849 66.6431 40.9316C65.0831 41.4782 63.1698 41.7516 60.9031 41.7516Z" fill="url(#paint0_linear_449_397)" />
    <path d="M125.44 44.6886C122.32 44.6886 119.613 44.1153 117.32 42.9686C115.04 41.8086 113.28 40.0953 112.04 37.8286C110.8 35.5486 110.18 32.7753 110.18 29.5086C110.18 26.2419 110.8 23.4753 112.04 21.2086C113.293 18.9286 115.06 17.2153 117.34 16.0686C119.633 14.9086 122.333 14.3286 125.44 14.3286C128.56 14.3286 131.267 14.9086 133.56 16.0686C135.853 17.2286 137.62 18.9486 138.86 21.2286C140.1 23.4953 140.72 26.2553 140.72 29.5086C140.72 32.7619 140.093 35.5286 138.84 37.8086C137.587 40.0753 135.813 41.7886 133.52 42.9486C131.24 44.1086 128.547 44.6886 125.44 44.6886ZM125.44 40.0886C128.427 40.0886 130.733 39.2219 132.36 37.4886C134 35.7553 134.82 33.1353 134.82 29.6286C134.82 26.0153 133.993 23.3286 132.34 21.5686C130.7 19.8086 128.4 18.9286 125.44 18.9286C122.48 18.9286 120.173 19.7953 118.52 21.5286C116.88 23.2486 116.06 25.8686 116.06 29.3886C116.06 33.0286 116.873 35.7219 118.5 37.4686C120.14 39.2153 122.453 40.0886 125.44 40.0886ZM154.903 44.6686C152.943 44.6686 151.203 44.2886 149.683 43.5286C148.163 42.7553 146.963 41.5619 146.083 39.9486C145.203 38.3353 144.763 36.3086 144.763 33.8686C144.763 31.3486 145.256 29.2086 146.243 27.4486C147.229 25.6886 148.663 24.3619 150.543 23.4686C152.423 22.5619 154.696 22.1086 157.363 22.1086C158.576 22.1086 159.983 22.2153 161.583 22.4286V11.9886H167.223V44.3086H162.503L162.183 41.9486H161.883C161.043 42.8019 160.023 43.4686 158.823 43.9486C157.636 44.4286 156.329 44.6686 154.903 44.6686ZM156.343 40.1286C157.343 40.1286 158.296 39.9553 159.203 39.6086C160.123 39.2619 160.916 38.7153 161.583 37.9686V26.8286C160.343 26.5486 159.049 26.4086 157.703 26.4086C155.236 26.4086 153.396 26.9886 152.183 28.1486C150.983 29.3086 150.383 31.0819 150.383 33.4686C150.383 37.9086 152.369 40.1286 156.343 40.1286ZM183.706 44.7086C181.359 44.7086 179.319 44.2819 177.586 43.4286C175.852 42.5753 174.512 41.3019 173.566 39.6086C172.619 37.9153 172.146 35.8486 172.146 33.4086C172.146 30.9686 172.606 28.9086 173.526 27.2286C174.459 25.5486 175.786 24.2819 177.506 23.4286C179.239 22.5753 181.306 22.1486 183.706 22.1486C186.119 22.1486 188.186 22.5753 189.906 23.4286C191.639 24.2686 192.966 25.5286 193.886 27.2086C194.806 28.8753 195.266 30.9419 195.266 33.4086C195.266 35.8219 194.786 37.8753 193.826 39.5686C192.879 41.2619 191.532 42.5419 189.786 43.4086C188.052 44.2753 186.026 44.7086 183.706 44.7086ZM183.706 40.3486C187.666 40.3486 189.646 38.0419 189.646 33.4286C189.646 31.0286 189.139 29.2819 188.126 28.1886C187.112 27.0819 185.639 26.5286 183.706 26.5286C181.786 26.5286 180.312 27.0753 179.286 28.1686C178.272 29.2619 177.766 31.0019 177.766 33.3886C177.766 38.0286 179.746 40.3486 183.706 40.3486ZM200.24 22.4886H204.88L205.24 24.7686H205.52C206.506 23.9286 207.646 23.2819 208.94 22.8286C210.246 22.3753 211.626 22.1486 213.08 22.1486C215.733 22.1486 217.82 22.8953 219.34 24.3886C220.86 25.8686 221.62 28.1753 221.62 31.3086V44.3086H215.98V31.5686C215.98 29.9019 215.606 28.7086 214.86 27.9886C214.126 27.2686 213.033 26.9086 211.58 26.9086C210.54 26.9086 209.506 27.1019 208.48 27.4886C207.466 27.8753 206.6 28.4486 205.88 29.2086V44.3086H200.24V22.4886ZM239.266 40.1686C240.013 40.1686 240.94 40.0619 242.046 39.8486V44.2286C240.62 44.5486 239.186 44.7086 237.746 44.7086C234.933 44.7086 232.793 44.0353 231.326 42.6886C229.873 41.3419 229.146 39.3086 229.146 36.5886V26.9686H224.986V22.4886H229.146L230.146 14.7086H234.786V22.4886H241.826V26.9686H234.786V35.5286C234.786 37.2086 235.146 38.4019 235.866 39.1086C236.586 39.8153 237.72 40.1686 239.266 40.1686ZM255.932 44.7086C253.586 44.7086 251.546 44.2819 249.812 43.4286C248.079 42.5753 246.739 41.3019 245.792 39.6086C244.846 37.9153 244.372 35.8486 244.372 33.4086C244.372 30.9686 244.832 28.9086 245.752 27.2286C246.686 25.5486 248.012 24.2819 249.732 23.4286C251.466 22.5753 253.532 22.1486 255.932 22.1486C258.346 22.1486 260.412 22.5753 262.132 23.4286C263.866 24.2686 265.192 25.5286 266.112 27.2086C267.032 28.8753 267.492 30.9419 267.492 33.4086C267.492 35.8219 267.012 37.8753 266.052 39.5686C265.106 41.2619 263.759 42.5419 262.012 43.4086C260.279 44.2753 258.252 44.7086 255.932 44.7086ZM255.932 40.3486C259.892 40.3486 261.872 38.0419 261.872 33.4286C261.872 31.0286 261.366 29.2819 260.352 28.1886C259.339 27.0819 257.866 26.5286 255.932 26.5286C254.012 26.5286 252.539 27.0753 251.512 28.1686C250.499 29.2619 249.992 31.0019 249.992 33.3886C249.992 38.0286 251.972 40.3486 255.932 40.3486Z" fill="url(#paint1_linear_449_397)" />
    <path d="M100.327 3.38955C98.3624 3.52576 96.3782 3.91546 94.3375 4.56623C93.4503 4.85 91.2725 5.724 91.2725 5.79967C91.2725 5.81102 91.5144 5.74291 91.8088 5.65589C96.0314 4.35814 97.6163 4.02519 100.121 3.89276C103.573 3.71115 105.993 4.60028 107.388 6.56773C108.352 7.92602 108.824 9.77996 108.824 12.2393C108.828 14.884 108.267 17.0179 106.916 19.5226C106.42 20.4458 106.134 20.8922 105.186 22.2467C104.291 23.5256 103.952 24.0515 103.569 24.759C102.887 26.0076 102.492 27.1956 102.303 28.5274C102.202 29.2463 102.162 29.8744 102.121 31.3462C102.073 33.2152 102.045 33.7601 101.976 34.5243C101.549 39.3067 100.661 43.0222 99.2416 45.9695C98.9553 46.5636 98.3383 47.6532 98.0075 48.1451C97.1848 49.3785 96.2653 50.1882 95.3538 50.4871L95.1845 50.5439V49.8363C95.1845 49.4466 95.2046 48.9321 95.2248 48.6937C95.3296 47.5927 95.378 47.2446 95.8459 44.248C96.1967 42.0157 96.2492 41.4255 96.2492 39.8024C96.2492 38.4403 96.2209 37.9825 96.0677 36.9269C95.745 34.6946 95.0715 32.9844 93.9665 31.5845C93.7205 31.2705 92.7284 30.2905 92.6921 30.3246C92.68 30.3322 92.8413 30.5327 93.051 30.7673C93.7084 31.5126 94.1197 32.1369 94.4908 32.9542C95.0393 34.1611 95.3296 35.2735 95.5555 37.0593C95.6281 37.6268 95.6281 40.5515 95.5555 41.2023C95.2893 43.5973 95.0514 44.9139 94.4988 47.0479C94.2327 48.0694 94.1399 48.4856 94.0552 49.038C93.8294 50.4985 94.0794 51.3838 94.7933 51.6865C95.1038 51.8189 95.6281 51.8113 95.983 51.6713C96.4589 51.486 96.9025 51.1719 97.568 50.5514C98.7819 49.4164 99.8547 47.99 100.734 46.3403C102.028 43.9113 102.916 41.0396 103.593 37.0593C103.892 35.3113 104.025 34.1119 104.178 31.8948C104.408 28.5198 104.476 27.9599 104.767 27.014C105.093 25.9357 105.626 24.8801 106.82 22.9316C107.679 21.5279 108.058 20.8544 108.413 20.1279C109.312 18.2854 109.796 16.6963 110.034 14.8121C110.102 14.2483 110.102 11.8533 110.034 11.2934C109.889 10.1621 109.744 9.41674 109.514 8.66381C108.526 5.43645 106.678 3.93816 103.089 3.45765C102.686 3.40468 100.79 3.3555 100.327 3.38955Z" fill="url(#paint2_linear_449_397)" />
    <path d="M98.1892 6.17397C96.6849 6.92311 94.5797 7.27498 92.289 7.15391C90.954 7.0858 90.1354 7.00256 88.0866 6.71123C87.4333 6.62043 86.5904 6.50314 86.2113 6.45395C85.6103 6.37071 85.3442 6.34044 84.6384 6.25721C84.1907 6.20802 82.8477 6.12857 82.4203 6.12857C80.8474 6.12857 79.3794 6.40855 78.3066 6.91176C77.2016 7.4301 76.274 8.38734 75.6005 9.70401C75.1689 10.544 74.927 11.312 74.7737 12.3147C74.7011 12.7725 74.7011 14.6529 74.7697 15.1334C75.0157 16.8322 75.419 18.0543 76.2457 19.6547C76.8951 20.9071 77.6734 22.1216 79.1092 24.1382C80.7264 26.4046 81.2789 27.3732 81.5814 28.4666C81.6701 28.7769 81.6862 28.932 81.6862 29.3028C81.6862 29.8552 81.6379 30.0292 81.1418 31.2324C80.9522 31.6902 80.7506 32.2161 80.6941 32.4053C80.3876 33.4079 80.1335 34.403 79.9964 35.1294C79.6456 37.0288 79.8109 39.5978 80.5005 42.8857C80.5449 43.0938 80.6538 43.6462 80.7425 44.1153C81.0611 45.7574 81.3152 46.6163 81.6983 47.3541C82.4001 48.7086 83.5253 48.8864 84.1262 47.7362C84.4529 47.1195 84.5819 46.6352 85.0256 44.3423C85.074 44.104 85.1909 43.5743 85.2917 43.1695C86.3161 38.9697 87.526 35.7991 89.0343 33.3285C90.6274 30.7292 92.7124 28.686 95.2532 27.2294C95.5355 27.0705 95.7533 26.9381 95.7372 26.9381C95.6847 26.9381 95.1604 27.1953 94.616 27.4867C91.4219 29.212 88.873 31.9512 86.913 35.7764C85.5902 38.3568 84.4932 41.4101 83.368 45.6439C83.1906 46.306 83.0413 46.8584 83.0333 46.866C83.005 46.8925 82.6421 45.4547 82.4606 44.5921C81.9928 42.3711 81.8113 40.5285 81.8476 38.2962C81.8758 36.4007 82.021 35.2808 82.4203 33.7863C82.6058 33.0977 82.751 32.7155 83.1341 31.9361C83.8358 30.4984 83.9125 30.2524 83.9084 29.3974C83.9044 28.3947 83.6987 27.6683 83.1059 26.5408C82.6098 25.5987 82.0492 24.8041 80.8716 23.3702C79.3915 21.5692 78.8954 20.8617 78.1413 19.5034C76.2377 16.0566 75.6126 12.8746 76.4111 10.6461C76.8749 9.35214 77.8831 8.27383 79.1939 7.67603C79.8472 7.38092 80.428 7.22579 81.4039 7.0858C82.0331 6.995 84.3722 6.995 85.5458 7.08959C86.0015 7.12364 86.5823 7.16904 86.8364 7.18796C87.0904 7.20688 87.6914 7.25228 88.1673 7.29011C89.2683 7.37713 93.4868 7.38849 94.2772 7.30903C95.6888 7.16904 96.568 6.98365 97.3302 6.6734C97.669 6.5334 98.3102 6.19289 98.3505 6.12478C98.3828 6.07938 98.3788 6.07938 98.1892 6.17397Z" fill="url(#paint3_linear_449_397)" />
    <defs>
        <linearGradient id="paint0_linear_449_397" x1="62.4394" y1="47.3658" x2="-4.35722" y2="47.4273" gradientUnits="userSpaceOnUse">
            <stop offset="0.0436964" stop-color="#61D0F3" />
            <stop offset="1" stop-color="#1088AE" />
        </linearGradient>
        <linearGradient id="paint1_linear_449_397" x1="246.564" y1="50.3228" x2="98.331" y2="50.6259" gradientUnits="userSpaceOnUse">
            <stop offset="0.0436964" stop-color="#61D0F3" />
            <stop offset="1" stop-color="#1088AE" />
        </linearGradient>
        <linearGradient id="paint2_linear_449_397" x1="107.364" y1="5.60372" x2="90.1495" y2="5.59956" gradientUnits="userSpaceOnUse">
            <stop offset="0.0436964" stop-color="#61D0F3" />
            <stop offset="1" stop-color="#1088AE" />
        </linearGradient>
        <linearGradient id="paint3_linear_449_397" x1="94.9449" y1="8.04469" x2="73.3073" y2="8.03718" gradientUnits="userSpaceOnUse">
            <stop offset="0.0436964" stop-color="#61D0F3" />
            <stop offset="1" stop-color="#1088AE" />
        </linearGradient>
    </defs>
</svg>
