
<svg xmlns="http://www.w3.org/2000/svg" xml:space="preserve" width="246.243mm" height="31.815mm" version="1.1" style="shape-rendering:geometricPrecision; text-rendering:geometricPrecision; image-rendering:optimizeQuality; fill-rule:evenodd; clip-rule:evenodd"
viewBox="0 0 24624.3 3181.5">

 <g id="Camada_x0020_1">
  <metadata id="CorelCorpID_0Corel-Layer"/>
  <g id="_660231600">
   <path id="Dente_x0020_1"  d="M216.38 2213.77c0,0 -342.13,928.66 81.46,896.07 423.59,-32.59 362.5,-101.83 643.54,4.07 281.04,105.9 476.54,-32.58 513.2,-191.43 36.66,-158.85 -118.11,-631.33 -118.11,-631.33 0,0 -58.51,-297.77 -49.27,-741.26 9.24,-443.49 -184.8,-446.57 -261.79,-73.91 -76.99,372.66 -252.55,692.97 -372.66,384.98 -120.11,-307.99 9.24,-705.29 -150.91,-652.93 -160.15,52.36 -207.3,127.64 -246.38,566.69 -39.08,439.05 -39.08,439.05 -39.08,439.05z"/>
   <path id="Dente_x0020_1_11"  d="M615.81 1729.49c0,0 276.88,-1114.88 332.25,16.45"/>
   <path id="Dente_x0020_1_12"  d="M327.46 2841.4c0,0 101.44,50.73 388.86,19.73 287.42,-31 315.59,50.72 352.23,61.99"/>
   <path id="Dente_x0020_1_13"  d="M380.33 2240.02c0,0 646.51,-193.62 835.24,46.87"/>
   <path id="Dente_x0020_1_14"  d="M753.2 2734.34c0,0 62.43,135.76 -34.09,234.38"/>
  </g>
  <g id="_712745312">
   <path  d="M2658.13 1132.91c0,0 6.08,-257.94 -217.38,12.02 -223.46,269.96 -257.07,1045.47 -242.57,1075.36"/>
   <path  d="M2385.81 2190.63c0,0 530.31,-176.78 791.94,4.71"/>
   <path  d="M2911.4 1670.11c0,0 -94.78,-768.76 -257.25,-539.21"/>
   <path  d="M2330.31 2822.4c0,0 94.9,115.09 407.85,28.27"/>
   <path  d="M3097.55 2915.27c0,0 -236.22,-109.01 -359.39,-64.6"/>
   <path  d="M2719.98 2957.67c0,0 76.73,-113.06 54.52,-203.92"/>
   <path  d="M2195.09 2218.76c0,0 -457.3,1127.94 466.09,876.5l156.06 -43.35c0,0 268.79,112.7 390.17,65.02 121.38,-47.68 312.13,-255.77 221.09,-533.22 -91.04,-277.45 -117.04,-476.86 -112.71,-498.54 4.33,-21.68 -8.49,-799.03 -64.67,-799.03 0,0 -64.16,-274.77 -178.97,-225.2 -114.81,49.57 -151.1,525.99 -165.57,594.37 -14.47,68.38 -147.55,313.65 -199.73,149.27 -52.18,-164.38 -103.75,-656.35 -55.79,-675.21"/>
  </g>
  <g id="_660054816">
   <path  d="M4228.2 2203.37c0,0 -405.28,953.08 191.5,912.99 596.78,-40.09 89.08,-138.07 636.87,8.9 547.79,146.97 409.72,-485.44 405.27,-552.24 -4.45,-66.8 -146.97,-507.71 -111.34,-610.14 35.63,-102.43 59.91,-1221.78 -133.61,-977.33 -193.52,244.45 -268.21,858.98 -421,774.1 -152.79,-84.88 -264.83,-651.87 -291.99,-719.78 -27.16,-67.91 -108.64,-224.08 -203.71,78.09 -95.07,302.17 -83.11,1112.99 -71.99,1085.41z"/>
   <path  d="M4537.66 1162c0,0 91.87,-291.88 166.56,-169.66 74.69,122.22 201.46,705.46 201.46,705.46"/>
   <path  d="M4405.07 2203.28c0,0 506.62,-219.09 812.42,-4.57"/>
   <path  d="M4389.63 2866.64c0,0 173.91,145.59 380.17,-4.05 0,0 214.36,-38.42 333.66,101.11"/>
   <path  d="M4771.82 2769.57c0,0 38.42,179.98 -10.11,192.11"/>
  </g>
  <g id="_713710984">
   <path  d="M6172.75 2258.55c0,0 -147,594.42 -57.52,683.9 89.48,89.48 345.14,313.18 639.15,178.96 294.01,-134.22 223.7,-472.98 204.53,-530.5 -19.17,-57.52 -172.57,-485.75 -166.18,-530.49 6.39,-44.74 -134.23,-613.6 -121.44,-722.25 12.79,-108.65 19.17,-658.32 -76.7,-690.28 0,0 -115.04,-236.48 -147,108.66 -31.96,345.14 -321.44,1720.1 -274.84,1502z"/>
   <path  d="M6313.37 2296.9c0,0 265.02,-177.8 415.45,-57.52"/>
   <path  d="M6308.16 2997.87c0,0 387.38,-67.91 472.51,0"/>
   <path  d="M6562.59 3060.04c0,0 51.66,-215.21 -39.21,-195.12"/>
  </g>
  <g id="_695196808">
   <path  d="M7577.3 2221.17c0,0 -254.26,423.76 -93.23,767 0,0 216.11,211.88 432.23,173.74 0,0 457.65,-97.47 427.99,-457.66 0,0 -161.03,-745.8 -169.5,-805.13 -8.47,-59.33 -230.56,-1528.27 -320.73,-1514.4 -90.17,13.87 -110.97,110.99 -173.4,575.72 -62.43,464.73 6.93,1255.48 -103.36,1260.73z"/>
   <path  d="M7672.82 2249.15c0,0 294.27,-129 471.65,36.28"/>
   <path  d="M7648.63 2950.58c0,0 229.77,-32.26 431.34,20.15"/>
   <path  d="M7856.22 2845.78c0,0 -40.81,93.95 24.92,184.33"/>
  </g>
  <g id="_658758056">
   <path  d="M8870.66 2245.29c0,0 -392.48,836.8 348.05,888.64"/>
   <path  d="M9566.76 2852.53c0,0 -88.86,303.61 -348.05,281.4"/>
   <path  d="M9455.68 1808.38c0,0 162.92,755.34 111.08,1044.15"/>
   <path  d="M9455.68 1808.38c0,0 -143.56,-1750.82 -252.48,-1734.06 -108.92,16.76 -92.16,259.73 -134.05,335.14 -41.89,75.41 -198.49,1835.83 -198.49,1835.83"/>
   <path  d="M8976.98 2227.59c0,0 75.41,-92.16 402.17,0"/>
  </g>
  <g id="_669779368">
   <path  d="M10076.15 2249.79l-31.68 766.59c0,0 215.41,171.07 728.58,38.02l6.33 -760.26c0,0 -164.71,-367.46 -171.05,-823.61 -6.34,-456.15 -196.41,-1368.47 -247.09,-1140.39 -50.68,228.08 -171.04,1121.39 -183.72,1381.14 -12.68,259.75 -105.05,627.33 -101.37,538.51z"/>
   <path  d="M10209.19 2186.44c0,0 69.69,-171.06 367.46,-57.02"/>
  </g>
  <g id="_658650664">
   <path  d="M11230.2 2230.85l0 756.26c0,0 232.7,274.24 839.37,33.24 0,0 8.3,-831.06 -49.87,-831.06 -58.17,0 -315.8,-1844.94 -315.8,-1844.94 0,0 -124.65,-540.18 -224.38,-8.31 -99.73,531.87 -157.91,2019.47 -249.32,1894.81z"/>
   <path  d="M11387.29 2070.18c0,0 344.64,-225.36 502.32,-9.66"/>
  </g>
  <g id="_694729040">
   <path  d="M13408.75 2237.42l0 756.26c0,0 -232.7,274.24 -839.37,33.24 0,0 -8.3,-831.06 49.87,-831.06 58.17,0 315.8,-1844.94 315.8,-1844.94 0,0 124.65,-540.18 224.38,-8.31 99.73,531.87 157.91,2019.47 249.32,1894.81z"/>
   <path  d="M13251.66 2076.75c0,0 -344.64,-225.36 -502.32,-9.66"/>
  </g>
  <g id="_660222576">
   <path  d="M14534.91 2286.99l31.68 766.59c0,0 -215.41,171.07 -728.58,38.02l-6.33 -760.26c0,0 164.71,-367.46 171.05,-823.61 6.34,-456.15 196.41,-1368.47 247.09,-1140.39 50.68,228.08 171.04,1121.39 183.72,1381.14 12.68,259.75 105.05,627.33 101.37,538.51z"/>
   <path  d="M14401.87 2223.64c0,0 -69.69,-171.06 -367.46,-57.02"/>
  </g>
  <g id="_694356760">
   <path  d="M15700.31 2199.4c0,0 392.48,836.8 -348.05,888.64"/>
   <path  d="M15004.21 2806.64c0,0 88.86,303.61 348.05,281.4"/>
   <path  d="M15115.29 1762.49c0,0 -162.92,755.34 -111.08,1044.15"/>
   <path  d="M15115.29 1762.49c0,0 143.56,-1750.82 252.48,-1734.06 108.92,16.76 92.16,259.73 134.05,335.14 41.89,75.41 198.49,1835.83 198.49,1835.83"/>
   <path  d="M15593.99 2181.7c0,0 -75.41,-92.16 -402.17,0"/>
  </g>
  <g id="_659097512">
   <path  d="M17053.23 2193.17c0,0 254.26,423.76 93.23,767 0,0 -216.11,211.88 -432.23,173.74 0,0 -457.65,-97.47 -427.99,-457.66 0,0 161.03,-745.8 169.5,-805.13 8.47,-59.33 230.56,-1528.27 320.73,-1514.4 90.17,13.87 110.97,110.99 173.4,575.72 62.43,464.73 -6.93,1255.48 103.36,1260.73z"/>
   <path  d="M16957.71 2221.15c0,0 -294.27,-129 -471.65,36.28"/>
   <path  d="M16981.9 2922.58c0,0 -229.77,-32.26 -431.34,20.15"/>
   <path  d="M16774.31 2817.78c0,0 40.81,93.95 -24.92,184.33"/>
  </g>
  <g id="_712743136">
   <path  d="M18328.03 2266.8c0,0 147,594.42 57.52,683.9 -89.48,89.48 -345.14,313.18 -639.15,178.96 -294.01,-134.22 -223.7,-472.98 -204.53,-530.5 19.17,-57.52 172.57,-485.75 166.18,-530.49 -6.39,-44.74 134.23,-613.6 121.44,-722.25 -12.79,-108.65 -19.17,-658.32 76.7,-690.28 0,0 115.04,-236.48 147,108.66 31.96,345.14 321.44,1720.1 274.84,1502z"/>
   <path  d="M18187.41 2305.15c0,0 -265.02,-177.8 -415.45,-57.52"/>
   <path  d="M18192.62 3006.12c0,0 -387.38,-67.91 -472.51,0"/>
   <path  d="M17938.19 3068.29c0,0 -51.66,-215.21 39.21,-195.12"/>
  </g>
  <g id="_660186600">
   <path  d="M19172.45 2237.46c0,0 -405.28,953.08 191.5,912.99 596.78,-40.09 89.08,-138.07 636.87,8.9 547.79,146.97 409.72,-485.44 405.27,-552.24 -4.45,-66.8 -146.97,-507.71 -111.34,-610.14 35.63,-102.43 59.91,-1221.78 -133.61,-977.33 -193.52,244.45 -268.21,858.98 -421,774.1 -152.79,-84.88 -264.83,-651.87 -291.99,-719.78 -27.16,-67.91 -108.64,-224.08 -203.71,78.09 -95.07,302.17 -83.11,1112.99 -71.99,1085.41z"/>
   <path  d="M20013.71 1196.09c0,0 -91.87,-291.88 -166.56,-169.66 -74.69,122.22 -201.46,705.46 -201.46,705.46"/>
   <path  d="M20146.3 2237.37c0,0 -506.62,-219.09 -812.42,-4.57"/>
   <path  d="M20161.74 2900.73c0,0 -173.91,145.59 -380.17,-4.05 0,0 -214.36,-38.42 -333.66,101.11"/>
   <path  d="M19779.55 2803.66c0,0 -38.42,179.98 10.11,192.11"/>
  </g>
  <g id="_660212232">
   <path  d="M21698.52 1110.99c0,0 6.08,-257.94 -217.38,12.02 -223.46,269.96 -257.07,1045.47 -242.57,1075.36"/>
   <path  d="M21426.2 2168.71c0,0 530.31,-176.78 791.94,4.71"/>
   <path  d="M21951.79 1648.19c0,0 -94.78,-768.76 -257.25,-539.21"/>
   <path  d="M21370.7 2800.48c0,0 94.9,115.09 407.85,28.27"/>
   <path  d="M22137.94 2893.35c0,0 -236.22,-109.01 -359.39,-64.6"/>
   <path  d="M21760.37 2935.75c0,0 76.73,-113.06 54.52,-203.92"/>
   <path  d="M21235.48 2196.84c0,0 -457.3,1127.94 466.09,876.5l156.06 -43.35c0,0 268.79,112.7 390.17,65.02 121.38,-47.68 312.13,-255.77 221.09,-533.22 -91.04,-277.45 -117.04,-476.86 -112.71,-498.54 4.33,-21.68 -8.49,-799.03 -64.67,-799.03 0,0 -64.16,-274.77 -178.97,-225.2 -114.81,49.57 -151.1,525.99 -165.57,594.37 -14.47,68.38 -147.55,313.65 -199.73,149.27 -52.18,-164.38 -103.75,-656.35 -55.79,-675.21"/>
  </g>
  <g id="_611174000">
   <path id="Dente_x0020_1_15"  d="M24333.39 2109.19c0,0 342.13,928.66 -81.46,896.07 -423.59,-32.59 -362.5,-101.83 -643.54,4.07 -281.04,105.9 -476.54,-32.58 -513.2,-191.43 -36.66,-158.85 118.11,-631.33 118.11,-631.33 0,0 58.51,-297.77 49.27,-741.26 -9.24,-443.49 184.8,-446.57 261.79,-73.91 76.99,372.66 252.55,692.97 372.66,384.98 120.11,-307.99 -9.24,-705.29 150.91,-652.93 160.15,52.36 207.3,127.64 246.38,566.69 39.08,439.05 39.08,439.05 39.08,439.05z"/>
   <path id="Dente_x0020_1_16"  d="M23933.96 1624.91c0,0 -276.88,-1114.88 -332.25,16.45"/>
   <path id="Dente_x0020_1_17"  d="M24222.31 2736.82c0,0 -101.44,50.73 -388.86,19.73 -287.42,-31 -315.59,50.72 -352.23,61.99"/>
   <path id="Dente_x0020_1_18"  d="M24169.44 2135.44c0,0 -646.51,-193.62 -835.24,46.87"/>
   <path id="Dente_x0020_1_19"  d="M23796.57 2629.76c0,0 -62.43,135.76 34.09,234.38"/>
  </g>
 </g>
</svg>
